<svg width="44px" height="43px" viewBox="0 0 44 43" version="1.1" xmlns="http://www.w3.org/2000/svg" xmlns:xlink="http://www.w3.org/1999/xlink">
    <g id="flat" stroke="none" stroke-width="1" fill="none" fill-rule="evenodd">
        <g id="Linkedin" transform="translate(0.004485, -0.500000)" fill="#4A8F9E">
            <path d="M35.9955151,27.6266598 C35.9955151,23.8394326 33.0511715,20.8297982 29.7726613,20.8297982 C27.2676024,20.8297982 25.0529201,20.8297982 23.5815904,23.9999995 C23.3099556,24.5852775 22.9955155,26.2895184 22.9955155,27.1324171 L22.9955155,43.4999995 L15.036777,43.4999989 L15.0367767,22.7102582 L15.0367767,12.455873 L23.3012671,12.455873 L23.7089346,16.5 L23.8873426,16.5 C25.0805776,14.5783603 27.7924258,12.455873 32.6850041,12.455873 C38.6490801,12.455873 43.9955153,17.1766025 43.9955153,25.8297979 L43.9955153,43.4999995 L35.9955151,43.4999995 L35.9955151,27.6266598 Z M4.32081087,8.76648024 C1.71699591,8.76648024 0.036776724,6.92405932 0.036776724,4.64751022 C0.036776724,2.3156217 1.7713812,0.525677812 4.42767319,0.525677812 C7.08396519,0.525677812 8.71170734,2.31466757 8.76609263,4.64751022 C8.76704675,6.92405932 7.08491932,8.76648024 4.32081087,8.76648024 L4.32081087,8.76648024 Z M0.995515537,43.4999995 L0.995515303,12.4558734 L7.98371812,12.4558737 L7.98371835,43.4999999 L0.995515537,43.4999995 Z" id="Shape"></path>
        </g>
    </g>
</svg>