<?xml version="1.0" encoding="UTF-8" standalone="no"?>
<svg viewBox="0 0 24 25" version="1.1" xmlns="http://www.w3.org/2000/svg" xmlns:xlink="http://www.w3.org/1999/xlink">
    <!-- Generator: Sketch 3.7.2 (28276) - http://www.bohemiancoding.com/sketch -->
    <title>in</title>
    <desc>Created with Sketch.</desc>
    <defs></defs>
    <g id="Page-1" stroke="none" stroke-width="1" fill="none" fill-rule="evenodd">
        <path d="M0.8,9.16 L0.8,25 L5.48,25 L5.48,8.584 L0.8,9.16 Z M0.296,3.076 C0.296,4.66 1.556,5.92 3.14,5.92 C4.724,5.92 5.984,4.66 5.984,3.076 C5.984,1.492 4.724,0.232 3.14,0.232 C1.556,0.232 0.296,1.492 0.296,3.076 L0.296,3.076 Z M13.97,10.636 L13.538,8.692 L9.578,8.692 L9.578,25 L14.258,25 L14.258,14.452 C14.978,13.372 16.058,12.616 17.174,12.616 C18.218,12.616 19.082,13.228 19.082,15.28 L19.082,25 L23.762,25 L23.762,13.588 C23.762,9.844 21.422,8.188 19.01,8.188 C16.958,8.188 15.266,9.16 14.186,10.636 L13.97,10.636 Z" id="in" fill="#FAFAFA"></path>
    </g>
</svg>