<?xml version="1.0" encoding="utf-8"?>
<!-- Generator: Adobe Illustrator 19.2.1, SVG Export Plug-In . SVG Version: 6.00 Build 0)  -->
<!DOCTYPE svg PUBLIC "-//W3C//DTD SVG 1.1//EN" "http://www.w3.org/Graphics/SVG/1.1/DTD/svg11.dtd">
<svg version="1.1" image-rendering="optimizeSpeed" class='outlines svg' xmlns="http://www.w3.org/2000/svg" xmlns:xlink="http://www.w3.org/1999/xlink" x="0px" y="0px"
	 viewBox="0 0 1000 806" style="enable-background:new 0 0 1007.5 806;" xml:space="preserve">
<style type="text/css">
	.st0{fill:none;stroke:#000000;stroke-width:0.5;stroke-miterlimit:10;}
</style>
<g id="XG6Lt7_1_">
	<g>
		<path class="st0" d="M608.4,688c1.2-1.7,2.4-3.4,3.6-5.2c-1.1-0.6-2.2-1.3-3.7-2.2c4.7-2.5,5.9-7.2,7.2-11.5
			c0.8-2.8,1.4-6-0.8-8.6c-1-1.1-2.3-2-3.6-2.7c-3.9-2.1-4.6-3.7-3.3-7.8c0.7-2.1,1.3-4.2,2.1-6.3c1.2-3,4.2-4.1,7.8-3
			c2.2,0.7,4.3,2.5,6.9,0.9c3.2-1.9,5-4.9,6.3-8.1c2.1-5.5,3.2-11.2,3.7-17.1c0.4-4.2,1.3-8.4,1.1-12.6c-0.3-7.9-1.3-15.9-4.1-23.4
			c-0.5-1.2-1.5-2.2-2.3-3.4c-4.8,3.5-9.7,5.7-15,7.1c-2,0.5-3.6,2.4-4.3,4.7c-0.2,0.7-0.9,1.5-1.5,1.7c-0.6,0.2-1.7-0.3-2-0.8
			c-2.3-3.6-5-7.2-6.4-11.1c-0.9-2.4-0.1-5.7,0.8-8.3c2-6.4,2.9-12.9,3.9-19.5c1.9-12.4,0.8-24.8,1.1-37.2
			c0.2-8.6,0.7-17.2,0.5-25.8c-0.1-5.9-1-11.8-1.8-17.7c-0.5-3.8-4.6-5-7.4-2.4c-6.9,6.4-13.2,13.4-17.9,21.6
			c-2.8,4.9-4.3,10.3-4.7,16.1c-0.5,6.4-2.2,12.6-5.3,18.3c-0.8,1.5-1.5,3.3-3.9,2.7c-2.3-0.6-3.1-2.6-3.2-4.5
			c-0.2-2.8,0.6-5.6,0.4-8.4c-0.2-2.1-1-4.4-2.1-6.2c-1.2-1.9-3.3-3.1-4.6-4.9c-0.5-0.7-0.1-2.2,0.2-3.2c1-2.9,2.2-5.8,3.3-8.7
			c1-2.9,1.2-5.7,0.5-8.7c-0.4-1.7,0.3-3.9,1.1-5.6c2.9-6.3,6.3-12.3,9.2-18.7c1.7-3.7,2.8-7.7,3.9-11.7c0.8-2.9,2.7-4.7,5.1-6.3
			c4.8-3.2,7.1-8.5,10.5-12.9c-0.3-3.7-0.2-7.5-1-11.1c-1.2-5.4-2.6-10.7-3.4-16.2c-1.2-8.4-3.4-16.6-5.3-24.9
			c-1.1-4.6-2.4-9.2-3.6-13.8c-0.1-0.6,0-1.2,0-1.8c0.1-4.5,1.9-5.6,6-3.6c5.8,2.7,11.5,5.6,15.6,10.8c1.5,1.9,3,3.8,4.5,5.7
			c1.4,1.9,3.2,1.3,4.8,0.5c4.1-2.1,5.7-6,6.2-10.2c0.7-6.1,1.4-12.2,1.2-18.3c-0.2-6.5-1.5-13-2.3-19.5c-0.3-2.2-0.6-4.4-0.6-6.6
			c0.1-7.9-3.2-14.6-8.2-20.3c-2.9-3.3-6.8-5.6-10.1-8.5c-6.1-5.2-12.8-9.7-20.2-12.8c-2.5-1.1-5.6-1.4-8.3-1.2
			c-3.3,0.3-6.2,0.1-9-1.6c-1.6-1-3.1-2-4.8-2.7c-2-0.8-3-2.5-2.9-4.2c0.2-3.5-0.7-6.5-2.6-9.1c2.7-4.7,7.4-4,11.5-5
			c5.9-1.4,11.4,1.1,17.1,1.8c0.9,0.1,1.8,0.6,2.7,0.6c5.3,0,9.5,2.4,11.9,7c3.8,7,8.6,13.2,14.3,18.8c1.2,1.2,2.9,3,5.3,1.9
			c2.5-1.1,3.9-3,3.9-5.7c0-7.1-2.4-13.6-7-18.8c-5.5-6.3-9.8-13.6-16-19.4c-5.3-4.9-11.5-6.7-18.4-7.8c-8-1.3-15.6,1-23.4,1.8
			c-5.6,0.6-11.2,0.6-16.8,0.6c-3,0-5.6-3.6-4.8-6.5c1.5-5,3-9.9,7.1-13.5c1.9-1.7,3.6-3.6,5.4-5.4c4.3-4.3,3-9.9-2.1-12.2
			c-3.7-1.7-7.6-2.8-11.4-4.3c-2.2-0.9-4.2-1.9-6.3-3c-1.6-0.9-2.1-2.3-2.5-4.1c-1.1-4.6,1.4-8.1,3.3-11.6c0.9-1.6,3.6-2.4,5.5-3.4
			c2.3-1.1,4.9-1.8,7.2-3.1c5.2-2.9,5.6-7,1.9-11.4c-7.7-9.2-18.4-12.4-29.2-15.4c-4.3-1.2-9-1-13.5-1.3c-5.9-0.4-11.8-0.7-17.7-1.7
			c-6.7-1.1-13.6-1.5-20.4,1c-3.4,1.3-7.2,2.5-10.8,2.3c-6.5-0.3-11.8,3-17.7,4.4c-9.8,2.5-17.1,9.2-24.3,15.9
			c-3.9,3.7-7.7,7.5-11.1,11.7s-6.6,8.8-9.3,13.5c-1.8,3.3-2.7,7.1-3.7,10.7c-0.8,2.9-1.4,6-1.8,9c-0.3,1.9,0.1,2.8,2.7,2.2
			c4.6-1,9.4-1.3,14.1-1.6c5.4-0.3,8,1.7,9.6,7.2c1,3.4,1.7,6.9,3.1,10.2c1.4,3.4,4.9,3.7,8,3.9c5.3,0.3,10.5,0.8,15.6,2.4
			c3.9,1.2,6.4,3.9,8.3,7.5c-1.7,2.9-4.3,3.9-7.4,3.9c-7.5-0.2-15-0.8-22.5-0.5c-6.9,0.3-14.1,0.1-20.7,2.9
			c-2.9,1.2-5.8,2.8-8.1,4.8c-4.6,4.1-8.8,8.8-13.3,13.1c-1.9,1.8-2.4,4.1-2.6,6.3c-0.7,6.5-1.2,13-1.9,19.5
			c-0.4,3.8-0.9,7.6-1.4,11.9c-0.9-0.5-1.8-0.6-2.1-1.2c-1.1-1.9-1.9-4-3.1-6c-3-5-5.9-10.4-12-12.2c-6.2-1.9-10.6,0.9-12.5,7.4
			c-0.5,1.8-0.3,3.8-0.4,5.7"/>
		<path class="st0" d="M510.6,463.2c6-2.2,12.1-2.4,18.3-1.2c6,1.2,14.2-2.7,17.4-8.1c1.2-2,2.5-4,3.6-6c1.9-3.5,0.1-7.5-4.2-9.2
			c-2-0.8-4.2-1.2-6.3-1.2c-8.4,0-16.4-2.1-24.3-4.3c-4.7-1.3-9.2-2.2-14.1-1.2c-5.7,1.1-11.6,1.8-17.4,2.5
			c-7.7,0.9-15.3,2.9-23.1,2.3c-3.2-0.2-6.5-1-9.6-2.1c-3.3-1.2-3.8-3.4-3.1-6.8c1.3-6.2,5-9.1,11.1-10.3c5.2-1.1,10-3.6,15.1-5.2
			c3.2-1,6.6-1.4,9.9-1.8c3.9-0.5,7.9-0.5,11.7-1.3c5.6-1.3,9.1-5.3,11-10.5c0.8-2.1-0.2-4.8-2.1-6.2c-1.4-1-3.3-2.1-5.3-0.7
			c-0.3,0.2-0.9-0.1-1.2,0c-5.5,3.6-10.5,1.3-14.9-1.9c-2.3-1.7-4-1.1-5.4,0.2c-6.5,5.8-14.1,9.3-22.3,11.9
			c-5.5,1.8-11,3.6-16.5,5.4c-1.5,0.5-2.8,1.4-4.2,2c-1.7,0.7-2.6,0.5-3.1-1.8c-1.3-5.9,1.5-10.8,3.8-15.6
			c3.4-7.1,7.9-13.7,11.8-20.5c0.7-1.2,1.4-2.3,1.8-3.6c1.8-5.9,5.8-6.2,9.9-5.6c3.9,0.6,7.6,2,11.4,2.9c5.1,1.2,8,4.6,10.2,9
			c2.8,5.9,5.3,6,10.2,4.9c1.6-0.4,3.6-0.6,5,0.1c2.3,1.1,3.4-0.1,3.6-1.6c0.4-3.9,0.7-7.8,0.3-11.7c-0.4-4-2.3-7.8-2.4-11.7
			c-0.1-4.2,0.7-8.5,1.7-12.6c0.7-2.7,0.7-4.7-1.3-6.6c-3.9-3.7-8.7-5.2-13.8-6.4c-7.8-1.9-12.8,2.7-18,7c-1.1,0.9-2.2,1.9-3.3,2.7
			c-2.4,1.7-4.8,2.1-7.5,0.7s-3.1-3.9-3.6-6.4c-0.1-0.7,0.1-1.4,0-2.1c-0.4-1.6-0.7-3.3-1.5-4.8c-1.2-2.1-3-0.8-4.7-0.7
			c-4.3,0.1-8.3,0.7-12.3,2.4c-1,0.4-2.6-0.4-4.5-0.7c2-2.6,3.5-5,5.5-6.9c2.7-2.6,4.3-5.5,5.1-9.1c0.5-2.1,1.6-4,2-6.3
			c0.3-1.8-0.1-3.1-0.9-4.2c-1.8-2.7-4.2-5.1-5.9-7.9c-1.5-2.5-3.4-3.2-6.1-3.3c-4.3-0.1-8.4,0.4-12.3,2.4c-1.6,0.8-3.4,1.2-5.1,1.8
			c-3.2,1.2-4.6,3.6-4.8,6.9c-0.3,3.7-0.5,7.4-1.3,11.1c-0.4,2-1.7,3.7-3.8,4.9c-5.7,3.4-11.3,7-16.8,10.8
			c-3.5,2.4-5.7,8.7-4.5,12.9c1.7,6.1,2.3,12.3,3.1,18.6c0.8,5.7,2.7,11.2,4.1,16.8c1.4,5.7,4.3,10.7,6.7,16c1.5,3.3,1.5,7.3,1.9,11
			c0.4,3.5,0.3,7.1,1,10.5c1.1,5,2.5,9.9,4.2,14.7c1.1,3.2,2.7,6.3,4.2,9.3c0.5,1,1.4,2.1,2.4,2.7c2.6,1.6,5.2,3.9,8.1,4.4
			c4.9,0.7,10,2.2,15-0.4c2.6-1.4,3.9-0.6,5.7,2c2.4,3.5,2.8,7.6,3.4,11.4c0.6,3.7,1.9,6.6,5.5,7.7c4.1,1.3,5.2,4.4,6,8.1
			c0.9,3.9,2.5,7.4,6.2,9.7c1.3,0.8,2.2,2.2,3,3.6c1,1.6,2.2,2.4,3.9,1.4c2.7-1.5,4.5-0.4,6.3,1.5c2,2.1,3.4,4.3,4.3,7.2
			c1.5,4.7,4.8,8.2,9.1,10.9c6.2,3.8,12.8,3.4,19.5,2.4c1.2-0.2,2.4,0,3.6,0c5.9,0,11.3-1.5,16.9-3.4c5-1.7,9.1-4.7,13.4-7.4
			c0.5-0.3,1-0.9,1.2-1.5c1.8-4.2,2.8-8.2,0.1-12.6c-3.5-5.7-8.1-9.7-14.4-12.4c-3.6-1.5-8-2.2-10.1-6.4c-0.5-1-2.3-1.5-3.5-2.2"/>
		<path class="st0" d="M615.6,676.5c3-5.1,5.7-10.3,5.1-16.5c-0.1-1.1-0.4-2.2-0.6-3.3c-0.5-3.5,0.7-6.5,3.6-8.4
			c7.6-5,10.8-12.7,12.5-21.1c1.9-9.2,3.6-18.5,3-27.9c-0.6-10.1-1.5-20.3-5-30c-1.1-3-3.1-5.5-5.7-7.5c-1.8-1.4-3.7-1.3-5.1,0.3
			c-1.4,1.6-2.5,3.5-4,5c-2,2.1-5,1.7-6.5-0.9c-1.9-3.2-3.1-6.7-3-10.5c0.3-17.9,0.7-35.8,0.9-53.7c0.1-8.5-0.4-17-0.5-25.5
			c0-3.3,0.3-6.6,0.2-9.9c0-2.4-0.2-4.8-0.6-7.2c-0.6-3.8-6.5-5.1-9.5-2.1c-4.8,4.8-9.3,9.9-13.8,15c-3.5,4-6.8,8.2-10.2,12.3
			c-2,2.4-4.1,4.8-6.5,7.7c-2.4-5.6-0.8-10.6,1.4-14.4c3.1-5.4,5.3-11,7.5-16.6c2.2-5.7,4.2-11.5,6.7-17.1c1.6-3.6,7.3-5.9,11.4-5.6
			c1.5,0.1,3.5-1.1,4.7-2.3c3.2-3.3,5-7.6,5.9-12c0.9-3.9,2.2-7.5,4.7-10.4c3.2-3.8,3.4-8.2,3.4-12.7c0.1-5.6-1-11.2-0.7-16.8
			c0.3-4.7,1.3-9.7,3-14c1.7-4.1,2-8.3,2.1-12.4c0.3-12.4,0.4-24.8,0-37.2c-0.2-5.4-1.6-10.8-2.6-16.2c-0.7-3.8-2.6-7.4-2.1-11.4
			c0.3-2.3,0.4-4.7,1.2-6.9c2.1-5.4,0.8-10.7-0.4-15.9c-2.1-8.9-6.5-16.7-12.3-23.7c-3.6-4.4-6.9-9.1-10.9-13.1
			c-2.6-2.6-5.4-5.5-9.5-6.1c-2.2-0.3-4.4-0.6-6.6-0.9c-2.1-0.2-4.2-0.6-6.3-0.6c-4.3,0.1-8.6,0.6-12.9,0.8
			c-5.1,0.3-10.3,1.2-15.3-0.9c-2.8-1.2-4.2-7.8-2.1-9.9c1.3-1.3,2.8-2.6,4.5-3.3c8.3-3.4,8.8-10.5,5.6-17.1
			c-1.6-3.2-4.2-6.2-6.9-8.7c-1.8-1.7-4.4-3.1-3.7-5.8c0.9-3.3,2.4-6.7,6.2-8.1c2.3-0.8,4.6-1.5,6.9-2.4c3.9-1.5,4.9-3.4,3.6-7.2
			c-1.5-4.3-2.9-8.7-4.9-12.9c-1.5-3.2-4.2-5.6-7.4-7.6c-7.6-4.9-15.4-9.2-24.1-11.9c-11.5-3.7-23-7.5-34.5-11
			c-2.3-0.7-4.8-0.8-7.2-0.9c-2.6-0.2-5.2,0-7.8,0c-4.1-0.1-7.8,0.8-11.8,2.2c-7,2.5-14.4,3.7-21.5,5.6c-2.7,0.7-5.5,1.5-7.8,3
			c-6.1,4-12.7,6.9-19.5,9.7c-4.4,1.8-8.5,4.7-12.3,7.7c-7.4,5.9-14.4,12.3-21.7,18.5c-4,3.4-4.9,8.1-5.7,12.9
			c-1.5,9.5-1.8,19.3-5,28.5c-1,2.9-0.8,6.3-1.7,9.2c-1.1,3.7-2.4,7.4-4.2,10.8c-2.9,5.6-3.3,11.6-3.3,17.7c0,6.9-0.5,13.8-0.8,20.7
			c-0.2,3.3-0.4,6.6-0.6,9.9c-0.2,3.1-2.5,4.5-5.4,3.3c-1.6-0.7-3-1.9-4.5-2.6c-7.4-3.6-15.5-2-19.1,7.2c-1.6,4.1-0.4,8.4,0.5,12.6
			c1.4,6,3,12,2.7,18.3c-0.2,3.9,0.6,7.7,1.7,11.4c1.9,5.9,3.3,12,4.9,18c1.6,6.2,4.1,12.2,8.3,17c2.8,3.2,4.6,6.6,6.2,10.3
			c1.6,3.9,4.1,7.2,8.1,9c1.6,0.7,3.4,1,5.1,1.2c3.9,0.5,6.1,2.8,6.6,6.6c0.7,5.4,1.4,10.8,2.4,16.2c1.4,6.9,3.1,13.8,4.8,20.7
			c0.6,2.3,1.7,4.4,2.6,6.6"/>
		<path class="st0" d="M558.9,220.6c2.1-0.3,4.2-0.6,6.3-0.9c0.5-0.1,1.1-0.1,1.5-0.3c1.6-0.9,4.3-1.8,4.6-3
			c0.5-2.2-1.1-4.5-3.4-5.6c-4-1.9-7.2-4.7-8.9-8.8c-1.4-3.4-2.1-7.2-3.1-10.8c-0.3-1.2-0.7-2.4-0.6-3.6c0.4-2.6,3.7-4.7,7.1-5.1
			c1.3-0.1,2.6-0.4,3.9-0.6c4.9-0.8,6.9-4.2,5.4-9c-1.5-5-4.8-9.1-7.8-13.2c-2.1-2.9-3.8-5.9-5.3-9.2c-2.4-5.3-6.6-9.7-11.8-12.7
			c-11.1-6.4-22.4-12.3-34.8-16c-6.3-1.9-12.2-5.1-18.4-7.6c-1.6-0.7-3.4-1.1-5.1-1.2c-4.7-0.3-9.4-0.5-14.1-0.6
			c-5.4-0.2-10.7,0.4-15.9,2c-4.4,1.4-9,1.7-13.5,2.9c-4,1.1-8,2.4-11.7,4.2c-9.3,4.7-17.9,10.8-27.8,14.6
			c-5.7,2.2-10.5,6.9-15.7,10.6c-4.4,3.1-8.6,6.3-12.9,9.6c-4.6,3.5-7.8,8.1-9.5,13.5c-1.1,3.4-1.5,7-1.8,10.5c-0.4,4-0.3,8-0.7,12
			c-0.4,3.7-1,7.4-1.8,11.1c-1.1,5.2-2.1,10.5-3.6,15.6c-1.1,3.8-2.9,7.4-4.4,11.1c-1.8,4.4-2.4,9-2.2,13.8c0.3,7.9,0.2,15.8,0,23.7
			c0,2-0.5,4.1-1.2,6c-1,2.8-2.6,3.4-5,2.1c-2.8-1.6-5.7-2.5-9-2.4c-8.1,0.1-14.3,6.1-14,14.1c0.1,4.3,1.2,8.6,1.7,12.9
			c0.5,3.9,1.1,7.8,1.2,11.7c0.1,5.8,0.9,11.3,3,16.8c1.9,5.1,3,10.5,4.3,15.9c1.6,6.8,4.8,13,8.9,18.5c2.7,3.6,4.9,7.2,6.8,11.2
			c2.7,5.8,7.6,8.3,13.8,8.7c2.4,0.1,4.4,2.5,4.8,5.4c1.1,7.5,2.1,15.1,3.7,22.5c1.9,9,4.4,18,8.9,26.1c0.5,0.9,1,1.8,1.5,2.7"/>
		<path class="st0" d="M381,434.1c-0.4-0.7-0.8-1.4-1.3-2.3c1.6-0.9,3.3-1.7,4.5-2.4c-1.6-6.5-3.3-12.9-4.7-19.4
			c-1.2-5.5-2.1-11-3-16.5c-0.7-4.2-1-8.5-1.9-12.6c-0.9-3.7-2.7-4.8-6.5-4.8c-1.6,0-3.2,0-4.8,0c-4.8,0-7.5-3.8-5.6-8.4
			c0.9-2.1,2.4-3.9,3.9-5.7c1.9-2.2,4.1-4.1,5.9-6.4c2.6-3.3,3-7,1.9-11.1c-0.6-2.4-0.5-5-0.7-7.5c-0.2-4.4-0.6-8.8-0.5-13.2
			c0.1-3.5,1-7,1-10.5c0.1-2.1-0.7-4.2-1.1-6.3c-0.6-3.6-1.3-7.2-1.8-10.8c-0.3-2.4-0.5-4.8-0.6-7.2c-0.5-11.8,3.2-22.2,9.9-31.8
			c4.2-6,10.3-8.6,16.8-10.8c8.4-2.8,17.1-3.3,25.8-2.9c2.8,0.1,5.6,0.8,8.4,1.1c4.2,0.4,8.3-0.5,12.3-1.8c4.9-1.6,6.4-6.1,4.2-11.1
			c-0.8-1.9-1.3-4-2.1-6c-1.6-3.8-4.8-5.3-8.7-5.7c-2.9-0.4-5.8-1.4-7.7-3.6c-4.1-4.8-2.6-7.7,2-10.8c2.9-2,6.2-2,9.3-2.9
			c3.4-1,6.8-1.9,10.2-2.7c2.8-0.6,5.6-1.6,8.4-1.4c5.9,0.3,10.6-2.6,15.6-4.7c2.5-1,4.9-1.8,7.5-0.3c1.8,1,6.2,0.3,7.8-1.2
			c1.5-1.4,0.3-2.7-0.3-3.9c-0.2-0.4-0.9-0.5-1.7-0.8c2.1-1.5,3.3-2.5,4.7-3.4c1.6-1.1,4.8-0.6,5.3,1.2c1.8,6.4,7.5,7.4,12.4,9.2
			c4,1.5,8.2,2.4,12.3,3.7c10.3,3.1,8.1,9.5,3.5,14.6c-3.3,3.7-5.5,7.8-6.5,12.7c-1.4,6.2,1.7,11.7,7.8,12.8c3.9,0.7,8,0.2,12,0.1
			c7.6-0.2,14.8-3.1,22.2-4.1c6.2-0.8,12.6-1,18.3,2.8c2.3,1.6,4,3.4,4.8,6c0.4,1.3,0.3,2.1-1,2.4c-2.2,0.5-4.5,1.4-6.6,1.1
			c-5.6-0.8-11-0.7-16.5,0.6c-3.8,0.9-7.8,1.2-11.7,1.9c-3.1,0.5-5.3,2.4-6.5,5.1c-0.4,1,0.3,2.6,0.8,3.8c0.4,0.8,1.3,1.3,2,1.8
			c2.5,2,3,3.7,1.8,6.3c-1.5,3.3-1.3,3.9,2.1,5.1c0.8,0.3,1.5,0.9,2.1,1.5c4.8,4.4,10.3,6.7,16.8,6.9c2.8,0.1,5.8,0.3,8.3,1.3
			c2.2,0.9,4.1,2.8,5.7,4.7c5.2,6.2,10.2,12.6,15.4,18.8c0.7,0.9,1.5,1.8,2.4,2.4c4.4,2.6,5.6,6.7,6,11.4c0.3,3.9,1,7.8,1.1,11.7
			c0.1,4.6-0.8,9-3.5,12.9c-2.6,3.8-4.9,5-8.7,3.2c-6.3-2.9-11.7-7-15.9-12.6c-2.5-3.4-4.6-7.2-6.9-10.8c-2.4-3.7-6-6-9.6-8.4
			c-4.9-3.2-10-6-13.6-11c-2.7-3.7-3.6-7.9-4.7-12.1c-0.5-1.8-1.2-3.6-1.8-5.4c-0.8-2.3-1.6-4.6-0.3-6.9c2.1-3.6,0.1-6.5-1.6-9.3
			c-1.6-2.7-3.7-5-5.6-7.5c-1.5-2-3.7-2.1-6-2.5c-4.2-0.8-8.3-2-12.3-3.6c-4.6-1.8-9.2-0.5-13.8-0.4c-3,0.1-6,1.2-9,1.7
			c-5.5,0.9-9.9,3.9-13.7,7.6c-3.4,3.2-6.2,7-9.4,10.4c-1.7,1.7-3.8,3-5.7,4.5c-0.1,0.1-0.2,0.2-0.3,0.3c-3.2,2.6-4.3,6.6-6.1,10
			c-0.8,1.4,0.6,4.2,1.3,6.2c1.2,2.9,2,5.8,2.1,9c0.3,7.4,1,14.8,1.8,22.2c0.4,3.3,2.4,3.9,5,1.8c1.4-1.1,2.9-2.3,4.2-3.6
			c4.7-4.6,10.2-5.5,16.5-4c5.6,1.3,10.7,3.8,15.2,7.1c5.5,4.2,11.9,6.2,18.1,8.9c0.8,0.3,1.6,0.6,2.6,1c-1.9,1.8-3.8,0.3-5.3-0.2
			c-6.7-2.2-13-5.2-18.6-9.5c-4.4-3.4-9.6-5-15-5.7c-5.2-0.7-9.6,1.4-13.5,4.7c-1.7,1.5-3.3,3.1-5.1,4.5c-3,2.2-6.2,0.5-7.1-2.7
			c-0.5-1.7-0.7-3.6-0.6-5.4c0.4-5.1-0.6-9.9-1.8-14.7c-1.4-5.5-2.9-11-4.2-16.5c-0.3-1.1,0.1-2.4,0.3-3.6c0.3-1.7,0.8-3.4,1.3-5.6
			c-3.4,0.3-6.2,0.7-9.1,0.8c-3.3,0.1-6.6,0-9.9,0c-2.9,0-5.8-0.2-8.7,0.1c-3.5,0.4-7.1,0.9-10.5,1.8c-4.7,1.3-9.7,2.2-13.7,4.6
			c-4.7,2.9-8.8,7.5-9.5,13c-0.7,5.3-3.7,7.7-7.7,9.9c-4.6,2.5-8.9,5.3-10.1,10.8c-0.8,3.7-1.4,7.4-0.5,11.4c1.1,5,1.2,10.2,2,15.3
			c0.9,5.7,2,11.4,3,17.1c1,5.5,1.9,11,3,16.5c2,10,2.4,20.2,5.3,30c1.3,4.3,1.5,9,3.2,13.1c4.1,10.6,11.2,18.8,21.2,24.4
			c3.2,1.8,5.6,4.7,9.6,5.5c2.5,0.5,4.4,0.6,6.3-1s2.7-1.4,3.9,0.9c0.9,1.9,1.2,4.3,2.5,5.9c2.1,2.7,4.8,4.8,7.1,7.3
			c2.4,2.5,5.4,4.7,6.4,8.4c0.2,0.8,1.1,1.4,1.7,2.1c1.3,1.5,2.8,2.9,3.9,4.5c3.3,5,7.8,8.3,13.2,10.9c3.9,1.9,7,5.4,10.6,7.9
			c3.1,2.2,6.5,3.9,9.6,6.1c4.4,3.1,8.8,3.7,13.6,0.9c0.6-0.4,1.6-0.1,2.4,0c6.7,0.2,13.3-0.4,19.8-1.9c3.4-0.8,6.6-2.4,9.9-3.8
			c2.3-1,4.6-2.1,6.9-3.3c4.8-2.4,7.5-6.1,8.8-11.4c1.3-5.7-0.6-10.4-3.4-15c-3.1-5-2.9-7.1,1.2-11.4c2.5-2.5,5.4-4.6,7.7-7.3
			c5.1-5.6,8.7-12.2,11.4-19.2c0.5-1.3-0.1-3.1,0.4-4.4c1-2.2,2.3-4.5,3.9-6.3c2.7-3.1,5.9-5.8,7.5-9.9c0.6-1.5,0.7-2.5-0.3-4
			c-1.9-2.9-3.8-5.8-5.1-9c-2.6-6.1-11-12.8-16.6-12.5c-2.3,0.2-4.8,1-6.9,2.1c-2.2,1.2-4.5,2.7-4.3,5.9c0,0.8-0.9,1.7-1.5,2.9
			c1.9,0.6,3.6,1.1,5.2,1.6c6.3,2,9.8,6.9,12.5,12.3c0.8,1.6,0.8,3.8,1,5.7c0.2,2.1-1,3.5-3,4.2c-2.7,0.9-5.3,1.9-8.1,2.3
			c-4.3,0.7-8.6,0.9-12.9,1.3c-6.1,0.4-12.2-0.8-18-2.5c-7.3-2.2-14.4-1.4-21.6-0.4c-4,0.5-8,1.2-12,1.8c-4.7,0.7-9.4,1.7-14.1,2
			c-4.1,0.3-8.3,0.3-12.3-0.3c-3.5-0.6-4.5-5.2-2.1-7.9c1.5-1.7,3.1-2.9,5.6-3.5c5.9-1.3,11.6-3.5,17.4-5.2c2-0.6,4.2-1.1,6.3-1.2
			c8.5-0.5,16.8-1.7,24.7-5.3c3.2-1.5,7.1-1.7,10.7-1.8c5.2-0.2,10.3-0.5,15.3-1.9c0.7-0.2,1.3-0.7,2.5-1.4
			c-2.6-1.9-4.9-3.7-7.3-5.1c-2.5-1.6-5.1-3-7.8-4.2c-7.1-3.1-11-9.1-14-15.7c-1.5-3.3-2.5-7-3.6-10.5c-0.4-1.1-0.9-2.5-0.5-3.6
			c1.2-3.5,0.4-6.5-1.2-9.7c-2.5-4.9-1.3-10.8,2.7-14.1c1.5-1.3,3.2-1.6,5.1-0.9c2.2,0.8,2.5,2.5,2.4,4.5c-0.2,2.4-0.4,4.8-0.6,7.2
			c-0.2,2,1.9,3.9,4.8,4.2c5.5,0.5,9.5-2.3,12.8-6.1c1.4-1.6,0.1-3.4-1.5-4.4c-1.4-0.9-2.9-1.6-2.7-3.6"/>
		<path class="st0" d="M447.6,235.2c-0.8,6.4-5.6,8.5-10.8,10.2c-5.9,1.8-11.8,1.4-17.7,0.1c-6.1-1.4-12.2-0.3-18.3,0.6
			c-6.6,1-12.3,3.9-18,7.2c-5,2.9-6.9,8-9.6,12.6c-3.7,6.3-4.6,13.3-4.5,20.4c0,2.6,0.7,5.3,1.5,7.8c0.6,1.9,1.3,4.3,4.1,4.2
			c3,0,4.4-2.4,5-4.5c1.2-4.1,1.8-8.3,2.5-12.6c0.6-3.8,0.6-7.7,1.3-11.4c0.8-3.9,4.2-6.1,7.2-8c6.7-4.3,14-7.2,21.8-8.5
			c4-0.6,8-1.5,12-1.7c5.2-0.4,10,0.7,13.2,5.3c2.6,3.7,2.4,6.3-0.6,9.6c-2.6,2.8-2,5.3,1.5,6.2c1,0.3,2.4-0.6,3.6-1.1
			c1.7-0.8,3.1-2.3,4.8-2.6c3.3-0.6,6,0.6,7.8,3.8c2.4,4.1,5.5,4.6,9.2,1.5c1.6-1.3,3.1-2.7,4.5-4.2c6.6-7.4,14.3-12.9,24.3-14.4
			c4-0.6,8-0.8,12-1.2c5.4-0.6,10.5,1.3,15.6,2.5c5.2,1.2,9.7-0.1,13.1-3.3c4.7-4.4,9.8-6.3,16-6.5c4.3-0.2,8.6-1.2,12.9-1.7
			c3.1-0.3,6.2-0.5,9.3-0.6c1.5,0,3,0,3.5-1.6c0.4-1.4,0.1-2.8-1.4-3.9c-4.3-3.1-9.2-4.2-14.1-3.4c-7.2,1.1-14.2,3.5-21.3,4.5
			c-5.9,0.8-11.9,1.6-18-0.3c-4.8-1.5-6.4-4.9-7.4-8.9c-1.2-4.7-0.2-9.2,2-13.5c1.4-2.7,2.6-5.4,3.9-8.1c2-4.1-0.1-8.8-4.5-9.2
			c-4.5-0.4-9,0-13.5-0.1c-9.2-0.2-18.1,2.6-27.3,1.9c-4-0.3-8.2,0.7-12.3,1c-0.9,0.1-1.8-0.5-2.7-0.5c-8.4,0-16.3,2-23.7,6
			c-1.9,1-1.7,3.8,0.3,4.7c1.7,0.8,3.6,1.1,5.1,2.2c3.1,2.2,4.6,5.3,5,9.2c0.3,3.4,1.7,6.6,2.6,9.9"/>
		<path class="st0" d="M514.5,405.4c3.2-0.1,6.4-0.1,9.6-0.4c0.8-0.1,2-0.6,2.3-1.2c0.4-0.9,0.3-2.3-1.4-2.4c-0.5,0-1-0.7-1.5-0.8
			c-6.1-1.5-10-5.4-13.6-10.4c-3.1-4.3-5-8.9-6.1-13.9c-1.2-5.2-2-10.5-2.7-15.9c-0.5-3.7-2.9-7.5-2-11.4s2.8-7.5,4.4-11.6
			c-6.6-6.6-14.4-11.3-24.7-10.9c-3.9,0.1-6.8,1.9-9.6,4.2c-2.2,1.8-4.3,3.7-6.6,5.4c-3.8,2.7-8.2-0.1-8.7-4.2
			c-0.3-2.4-0.1-4.9-0.7-7.2c-0.7-2.3-2-4.5-3.2-6.6c-1.9-3.1-2.4-6.2-2.2-9.9c0.2-6-0.7-12-4.4-17.1c-0.4-0.5-1.1-1-1.8-1.2
			c-4.1-1.1-8.2-2.6-12.3-2.9c-3.7-0.3-7.6,0.7-11.4,1.4c-3.3,0.6-6.6,1.7-9.9,2.7c-4.4,1.3-7.6,4.2-9.2,8.4
			c-1.3,3.3-2.1,6.8-3.1,10.2c-1.4,5-5.4,7.4-9.6,9.6c-3.6,1.8-7.5,3.2-9.3,7.2c-0.9,2.1-1.9,4.3-2.1,6.6c-0.5,7,0.7,13.9,2.3,20.7
			c1.2,5.5,1.9,11.2,3.1,16.8c1.6,7.6,3.1,15.4,5.5,22.8c2.5,7.7,4.1,15.4,4.7,23.4c0.4,5,1.3,10.1,2.4,15c0.5,2.2,2.1,4.2,3.5,6
			c4.6,5.5,10,10,16.1,14c3.7,2.4,7,2.4,10.6,0.7c6.8-3.2,9.6-2.3,11.6,5.2c1.5,5.6,4.3,10,8.2,14.1c2.5,2.6,4.3,5.6,5.9,8.9
			c1.5,3,4.4,5.4,6.7,7.9c2.6,2.8,5.1,5.8,9.3,6.4c1,0.1,1.8,1.3,2.7,2c3.5,3.1,6.9,6.3,10.5,9.3c4.9,4,10.7,6.2,17.1,5.7
			c8-0.6,16.1-1.1,24-2.5c4.5-0.8,8.6-3.2,12.9-5c1.3-0.5,2.3-1.6,3.6-2c5.2-1.8,6.4-6.1,7.2-10.8c1-6.6-3.1-11.2-6.3-16.2
			c-0.6-0.9-1.7-1.6-2.4-2.4c-1.8-2.2-1.5-3.4,0.9-5.1c3.8-2.8,7.7-5.4,11.4-8.4c5.6-4.6,8.2-11.1,10.1-17.7
			c0.8-2.8-1.7-5.2-4.3-6.6c-3.3-1.7-6.9-2.2-10.5-1.7c-7.1,0.9-14.1,0.9-21-0.9c-5.2-1.4-10.4-3.1-15.9-2.7
			c-4.8,0.4-9.6,1.1-14.4,1.8c-4.1,0.6-8.2,1.2-12.3,1.8c-3.4,0.5-6.8,1.1-10.2,1.5c-5.3,0.7-10.4,0.7-15.3-2c-1.8-1-2.1-2-2.1-3.7
			c0.2-5.1,2.4-8.6,6.9-9.4c6.4-1.2,12.1-3.9,18.3-5.5c3.5-1,7.2-1.5,10.8-1.8c7.5-0.6,14.9-1.2,21.4-5.9c1.6-1.2,4.3-0.9,6.5-1.3"
			/>
		<path class="st0" d="M614.4,676c1.6-3.8,3.9-7.3,3.9-11.7c0.1-3.9-1-7.2-3.3-10.2c-2.6-3.4-1.9-6.6,1.5-8.1
			c0.5-0.2,1.2-0.3,1.8-0.3c5.8,0.3,9.2-2.9,12.1-7.5c3.2-5.2,4.2-11.1,5.2-16.9c1.1-6.5,1.9-13.2,1.8-19.8
			c-0.1-6.5-1.4-13-2.6-19.5c-0.6-3.5-1.9-6.9-3.3-10.2c-1.9-4.3-4-4.4-7.2-1c-1.6,1.8-3.4,3.4-5.4,4.8c-1.7,1.2-3.6,1.2-5.4-0.5
			c-3.3-3-5.7-6.4-5.9-10.8c-0.2-5.9-0.1-11.8,0-17.7c0.2-12.6,0.4-25.2,0.6-37.8c0.1-4.3,0.6-8.6,0.5-12.9c0-6.6-0.3-13.2-0.6-19.8
			c-0.2-3.6-0.6-7.2-1.2-10.8c-0.9-4.9-4.3-6.1-8-2.7c-4.1,3.9-8.1,7.9-11.7,12.3c-4.1,5.1-8.4,10.2-11.6,16.1
			c-2.4,4.4-3.7,9.1-4.7,13.9c-0.4,2.1-0.7,4.2-3.9,4.9c-1.8-3.4-4.1-6.9-5.5-10.7c-0.6-1.4,0.5-3.6,1.1-5.3
			c2.3-6.6,3.5-13.4,5.4-20.1c0.3-1.1,0.7-2.5,1.5-3.3c2.8-2.6,3.1-6.2,4.6-9.3c2.9-6.3,3.5-13.5,7.8-19.2c2.4-3.2,5.2-6.1,8.1-8.7
			c3.2-2.9,5.1-8.8,3.9-13c-1.2-4.1-3.1-8.3-2.8-12.3c0.4-4.9-0.7-9.3-1.5-13.8c-1.4-7.7-3.7-15.2-6.6-22.5c-1.1-2.8-1-5.6-1.2-8.4
			c-0.1-2.2,1.3-2.4,2.7-2.1c6.5,1.7,10.7,6,12.9,12.3c1.6,4.6,3.4,9.1,4.7,13.8c0.7,2.3,0.3,4.8,0.7,7.2c0.2,1.3,0.7,2.8,1.5,3.9
			s2.1,1,2.6-0.6c0.3-0.9,0.6-1.8,0.6-2.7c0.1-9.8,4.7-18.3,7.4-27.3c1.2-4,1.9-8.4,2.1-12.6c0.3-8.8,0.6-17.6,0-26.4
			c-0.6-7.9-1-15.9-4-23.4c-1.4-3.6-2.7-7.3-3.5-11.1c-0.5-2.1-0.5-4.4,1.1-6.3c6.6-7.6,4.3-15.5,1.3-23.7
			c-2.7-7.2-7.8-12.5-12.1-18.6c-3.6-5.1-7.7-9.5-12.9-12.9c-3.2-2.1-6.6-3.1-10.2-3.5c-5-0.5-10-0.8-15-0.6
			c-4.2,0.2-8.4,1.4-12.6,1.6c-3.6,0.2-7.4,0.3-10.7-0.7c-2.2-0.7-4.9-3.1-5.5-5.3c-1.2-4,0.5-7.9,3.7-10.7c2-1.7,4.2-3.2,6.3-4.8
			c0.2-0.1,0.4-0.2,0.6-0.3c4.8-4.1,4.5-10.6-0.9-14.1c-5.5-3.6-11.3-6.8-17.1-10.2c0.8-7.2,6.4-10.7,11.7-14.5
			c1.6-1.1,3.4-1.9,5.1-3c6.1-4,5.4-8.8,1.7-13.4c-6.7-8.3-15.7-13.8-25.7-17.4c-4.9-1.7-10-2.5-15.3-2.9c-6-0.5-12-1.9-18-2.9
			c-2.8-0.5-5.6-1-8.4-1.2c-7.3-0.4-14.5-0.4-21.6,2.2c-3.3,1.2-7.1,1.2-10.8,1.3c-5.1,0.2-9.8,1.2-14.4,3.6
			c-5.1,2.7-10.7,4.6-15.8,7.3c-3.6,1.9-7,4.3-10.2,6.9c-5,3.9-10,8-14.7,12.3c-4.9,4.5-10,9.2-12.6,15.6c-1.4,3.6-2.8,7.3-3.2,11.1
			c-0.8,6.9-2.9,13.4-4.5,20.1c-0.9,3.6-2.2,7.4,0.3,11.4c1-0.8,2-1.4,2.9-2.2c2.4-2.2,4.7-4.6,7.2-6.5c3.5-2.7,8-3.3,11.9-1.9
			c2.3,0.8,3.9,3.8,5.4,6.1c0.9,1.3,1,3.1,1.3,4.7c0.6,3.3,4.6,7.1,8.4,7.5c4.9,0.5,9.8,0.8,14.7,1.3c3.9,0.4,7.9,0.9,10.5,4.5
			c1.3,1.8,1.2,2.9-0.9,3.2c-3.7,0.6-7.6,0.6-11.4,0.7c-4,0.1-8,0-12,0c-3.8,0-7.6-0.1-11.4,0c-3,0.1-6,0.2-9,0.6
			c-4.2,0.6-6.5,4.3-9.9,6.3c-3.3,1.9-6.4,4-9.6,5.9c-2.3,1.3-3.4,0.8-4.2-1.8c-0.3-1-0.6-2-0.9-3"/>
		<path class="st0" d="M331.2,293.5c0-2.2-0.5-4.6,0.1-6.6c0.8-2.5,1.7-5.3,5.3-5.5c3.9-0.2,7,0.8,8.7,4.5c0.9,2,2,4.1,2.3,6.3
			c0.6,3.5,2.4,6.4,4.6,9c2.1,2.5,4.4,4.8,6.6,7.2c1.1,1.2,2.9,0.9,3.3-0.6c0.3-1.3,0.6-2.6,0.6-3.9c0.2-6.5,0.5-13,0.6-19.5
			c0.2-10.1,3.8-19,9.9-27c3.1-4,6.3-7.8,11.1-9.9c5.6-2.4,11.3-4,17.4-4.5c3.1-0.3,6.2-1.1,9.3-1.1c3.5,0,7,0.4,10.5,0.8
			c5.7,0.7,11.4,0.6,16.8-1.6c3.7-1.4,4.5-4.8,2.7-8.4c-2.7-5.3-7.2-8.1-12.6-9.6c-3.7-1-7-2.6-9.9-5.2c-2.7-2.4-3.1-8.9-1.3-12
			c3.1-5,7.9-6.6,13.2-6.8c6.2-0.3,11.5-3,16.8-5.8c2.4-1.3,1.8-4-0.9-5c-2.9-1.1-5.8-2.1-8.7-3c-4.2-1.3-8.4-2.7-12.6-3.9
			c-2.2-0.6-4.4-1.2-6.6-1.5c-5.1-0.7-8-4.2-10.4-8.2c-0.7-1.1-0.9-3.1-0.3-4.1c3.8-6.9,8.3-13.4,16.7-15.3c2.2-0.5,4.4-0.9,6.6-1.2
			c3-0.3,6-0.6,9-0.6c2.2,0,4.4,0.5,6.6,0.5c4.5,0.1,8.6-0.9,12.7-3.1c2.3-1.2,5.8-1,8.6-0.4c5.5,1.3,11,1.2,16.5,1
			c5.1-0.1,8.9,2.4,12.9,4.9c1.3,0.8,2.6,1.7,3.9,2.4c1.7,0.9,2,5.3,0.6,7.5c-2.6,4-4,8.2-2.4,12.9c0.8,2.2,2,4.3,2.6,6.6
			c1.7,6.3,6.7,8.7,12.1,10.8c3.4,1.3,6.8,2.4,10.2,3.6c3.9,1.5,6,4.3,5.7,7.5c-0.1,0.9-0.4,1.9-0.9,2.7c-2.9,4.2-6.1,8.3-8.9,12.7
			c-1.5,2.4-2.6,5.1-3.3,7.8c-0.9,3.5,1.8,6.9,6.2,8.4c3.9,1.3,7.9,1.4,12,0.7c7.9-1.5,15.8-2.3,23.7-3.7c7.6-1.3,14.8-0.4,20.9,4.4
			c3.1,2.4,5.3,6.1,7.5,9.5c1.3,2,0.4,3.1-2,2.9c-4.7-0.4-9.4-1.3-14.1-1.7c-3.7-0.3-7.5-0.5-11.1,0.1c-5.1,0.8-10.1,2.1-15,3.6
			c-1.6,0.5-3,2-4.1,3.3c-0.4,0.4-0.1,1.9,0.3,2.6c0.5,0.9,1.6,1.6,2.3,2.4c1.3,1.6,2.3,3,1.6,5.4c-0.6,2,0.3,3.5,2.1,5.3
			c3.3,3.2,6.7,5.7,11,7c1.7,0.5,3.6,1.1,5.4,0.9c9.1-1.2,14.9,3.8,20.4,9.9c4.3,4.7,8.5,9.6,13.3,13.7c4.9,4.3,6.9,9.6,7.7,15.7
			c1.4,9.6,2.2,19.1,1.8,28.8c-0.1,1.6-0.3,3.2-0.6,4.8c-1.2,5.8-2.2,5.2-6.3,3.3c-5.7-2.7-11.7-5.1-17-8.5
			c-8.1-5.2-15.3-11.4-19.1-20.8c-2.1-5.2-6.7-8.9-11.3-12c-8.4-5.5-13.2-13.1-14.6-22.9c-0.5-3.4-3.5-6.3-2.3-9.9
			c2.1-6.5-2.2-10.7-5.2-15.3c-1.2-1.9-3.1-3.2-5.6-3.8c-4.1-0.9-8-2.5-12-3.8c-4.9-1.5-9.8-1.3-14.7-0.3c-3.9,0.8-7.9,1.2-11.7,2.5
			c-5.2,1.8-9.5,5.4-12.9,9.6c-4.6,5.7-8.6,11.8-13,17.6c-1.8,2.4-2.3,4.9-0.5,7.2c2.8,3.6,1.5,7.6,1.7,11.4c0.1,2.3,0,4.6,0,6.9
			c0,2.1-0.1,4.2,0,6.3c0.1,1.9,0.1,3.9,0.6,5.7c0.5,1.8,2,1.6,3.2,0.6c1.8-1.4,3.7-2.7,5.4-4.2c4-3.7,8.4-3.2,13.2-1.9
			c6.9,1.8,12.5,5.6,18.3,9.4c4,2.7,8.2,5.1,12.9,6.3"/>
		<path class="st0" d="M580.8,706.8c4.8-4.2,9.5-8.6,12.9-14.1c1.5-2.4,2.8-4.9,3.9-7.5c1.1-2.4,0.4-3.7-2.1-4.5
			c-4.6-1.4-9.2-2.5-13.8-4c-5-1.7-9.8-3.9-14.2-7.1c-5-3.8-7-8.9-7.4-14.8c-0.8-12.3,1.8-24,6.4-35.4c3.2-7.9,5.3-16.2,8.3-24.2
			c1.8-4.9,3.7-9.8,4.3-15c0.5-3.7,0.2-7.6,0-11.4c-0.2-3.6-0.5-7.3-1.2-10.8c-0.8-3.6-2.7-4.1-5.3-1.5c-2.9,3-5.5,6.1-8.1,9.3
			c-2.3,2.7-5.4,3.3-8.7,3c-3.9-0.4-4.5-3.8-5.3-6.6c-1.1-4-1.5-8.2-2.5-12.3c-0.6-2.5-1.4-5-2.7-7.2c-1.9-3-1.5-6.2-1.4-9.4
			c0.1-3.5,0.9-7,1.1-10.5s-1.3-4.4-4.8-3.9c-4.8,0.7-9.6,1.1-14.4,1.9c-4.5,0.7-9,1.6-13.5,2.4c-6.1,1.1-12.1,1.9-18.3,0.6
			c-1.2-0.2-2.4,0-3.6,0c-5.9-0.1-11.8-0.6-17.4-2.7c-1.3-0.5-2.8-0.4-4.2-0.7c-5.5-1.2-9.8-4.7-14.1-8.1
			c-5.4-4.4-10.9-8.7-16.2-13.2c-2.7-2.3-5.2-4.7-7.8-7.2c-4.6-4.4-9.1-8.9-13.8-13.2c-2.7-2.4-5.7-4.4-8.4-6.4
			c-2.9,1.2-3.4,2.9-3.3,5.2c0.3,6.9,0.6,13.8,0.6,20.7c0,7.6-0.8,15.1-2.3,22.5c-0.5,2.6-0.3,5.4-0.7,8.1
			c-0.6,5.1-1.1,10.2-2.1,15.3c-1.9,9.7-2.3,19.3,0.7,28.8c1.9,6.1,3.8,12.2,5.7,18.3"/>
		<path class="st0" d="M408.6,611.2c-1,0-2,0-3,0c-0.1,0.3-0.3,0.6-0.4,0.8c3.9,6.6,7.7,13.3,11.8,19.8c3.1,4.8,6.8,9.3,9.8,14.2
			c3.3,5.6,6.2,11.5,9,17.4c4.1,8.7,8.9,17,15.7,24c3.8,4,8.2,7.4,11.9,11.5c6.4,6.8,12.2,14.2,18.7,20.9
			c6.4,6.6,14.6,9.4,23.6,10.7c5.2,0.8,10.2-0.8,15.3-0.6c6.7,0.2,13.4,0.8,20.1,1.1c7.9,0.3,15.5-1.6,22.8-4.3
			c8.5-3.2,16.6-7.7,23.7-13.4c8.9-7.2,16.5-15.6,22.8-25.2c3.1-4.7,6.3-9.4,8.9-14.4c2.5-4.8,4.5-9.9,4.3-15.6
			c-0.1-3.1,0.9-5.7,3-7.8c5.6-5.5,8.6-12.2,10.3-19.8c1.6-7.3,3.4-14.4,3.5-21.9c0.1-5.4,0.9-10.8,0.5-16.2
			c-0.6-8.4-1.3-16.9-4.6-24.9c-2-4.9-4.9-8.9-9.1-11.9c-1.9-1.4-5.1-1.3-6.9,0.3c-0.6,0.6-1.4,1-2.1,1.5c-2.1,1.4-3.6,0.7-4.2-1.8
			c-1.5-6.1-1.4-12.3-1-18.6c0.2-2.6-0.3-5.2-0.2-7.8c0.2-10.8,0.5-21.6,0.5-32.4c0-7.3-0.5-14.6-0.5-21.9c0-4.8,0.6-9.6,0.5-14.4
			c-0.1-3.3-0.6-6.6-2.5-9.7c-1.3-2.1-2.8-2.5-4.9-2.3c-1.7,0.1-3.5,0.5-4.5-0.8c2.3-3.2,4.8-6.1,6.5-9.5
			c2.9-5.7,6.4-10.9,10.6-15.5c5.4-5.9,7-13,7.6-20.7c0.5-5.6-0.6-10.5-3.1-15.3c-0.5-0.9-0.6-2.2-0.6-3.3
			c0.2-15.7,0.3-31.4,0.6-47.1c0.1-4,0.8-8,0.8-12c0-4.9-0.5-9.8-0.8-14.7c-0.1-2.2-0.3-4.4-0.6-6.6c-0.8-5.6-1.4-11.1-1.2-16.8
			c0.2-7.8-2.2-15-4.7-22.2c-3-8.7-8.8-15.5-13.8-22.8c-3.2-4.6-7.1-8.5-10.8-12.6c-2.8-3.1-6.4-3.9-10-5c-2.5-0.8-5.2-1.3-7.8-1.2
			c-3.4,0.2-6.5,0.3-10-0.5c-2-0.5-4.5,0.7-6.5-1.2"/>
		<path class="st0" d="M391.2,481.2c-0.1,2.2-0.3,4.4-0.3,6.6c0.2,11.2-1.6,22-5.7,32.4c-1.5,3.8-2.4,7.8-2.1,12
			c0.4,7.2,0.3,14.5,1.3,21.6c1.2,8.4,2.8,16.8,5.4,24.9c3.8,11.5,8.4,22.8,13.2,33.9c2.6,6,6.2,11.5,9.5,17.1
			c3.6,6.2,8,11.9,10.9,18.4c2.2,4.8,4,9.9,6.5,14.6c3.7,7.1,8.2,13.6,13.5,19.5c3.6,4,7.1,8.1,10.8,12c2.6,2.6,5.8,4.6,8.3,7.3
			c5,5.2,9.9,10.6,14.4,16.2c4.7,5.9,10.6,9.3,17.4,12.1c7.4,3,14.9,3.6,22.6,3.4c5.4-0.1,10.8-0.5,16.2-0.5c2.7,0,5.4,0.9,8.1,1.1
			c2.4,0.1,4.9-0.1,7.2-0.6c4.7-1,9.6-1.9,14.1-3.6c11.5-4.3,22.1-10.3,31.3-18.8c12.2-11.3,21.6-24.6,29-39.4
			c1.7-3.4,3.1-7.1,3.8-10.8s2.2-6.9,4.3-9.9c4.6-6.6,6.8-14.1,8.4-21.9c1-5,1.9-10,2.7-15c0.4-2.6,0.7-5.2,0.9-7.8
			c0.3-3.8,0.7-7.6,0.6-11.4c-0.1-4.8-0.9-9.6-1.1-14.4c-0.2-5.1-1.3-10-3.1-14.7c-2.5-6.8-6.7-12.5-12.6-16.7
			c-1.6-1.1-3.7-1.6-5.7-2.1c-1.8-0.5-3-1.5-3.3-3.3c-0.4-2.4-1.1-4.8-1.2-7.2c-0.2-6.3-0.1-12.6,0-18.9c0.1-5.4,0.5-10.8,0.5-16.2
			c0-6-0.6-12-0.5-18c0.2-7.6,1.4-15.2,1.3-22.8c-0.1-6.4,1.2-13.1-2.2-19.2c-1.4-2.6,0.4-5,1.8-7.1c2.7-4.2,5.8-8.2,8.6-12.4
			c2.9-4.3,4-9.3,4.8-14.4c0.6-4,1.3-8,1.8-12c0.6-5.6-2-10.7-2.4-16.2c-0.3-3.4-1.2-6.8-1.7-10.2c-0.7-4.8-1.5-9.6-1.7-14.4
			c-0.2-3.8,0.3-7.6,0.5-11.4c0-0.3,0-0.6,0-0.9c0.2-5.9,0.2-11.8,0.7-17.7c0.6-7.4,0.8-14.9,2.8-22.2c1.1-4,0.3-8.3-1.1-12.3
			c-3.2-8.9-6.4-17.8-9.6-26.7c-2.1-5.9-4.6-11.5-8.9-16.3c-3.2-3.6-5.5-8.1-8.5-11.9c-4.5-5.7-8.4-11.8-15.2-15.5
			c-3.6-2-6-5.9-9.1-8.8c-2.2-2-4.7-3.7-6.9-5.7c-5.6-5.2-4-9.2,1.8-12.6c2-1.2,4.1-2.3,5.7-3.9c3.8-3.8,4.3-8.6,3.7-13.8
			c-0.8-7.4-5.2-12.7-9.6-18c-4.6-5.5-8.9-11.3-13.6-16.7c-1.6-1.9-3.8-3.2-5.6-4.9c-5.7-5.3-11.8-10.1-18.7-13.7
			c-6.7-3.5-12.5-8.2-18.4-12.8c-2.7-2.1-6.8-2.6-10.4-3.4c-6.7-1.6-13.4-0.8-20.1,0.4c-3.8,0.7-7.8,0.1-11.7,0.1
			c-5.6,0.1-11.3-0.5-16.8,1.1c-2.3,0.6-4.8,0.5-7.2,0.7c-3,0.2-6,0.6-9,0.5c-1.6,0-3.3-0.6-4.8-1.2c-0.5-0.2-1.5-0.5-0.8-2.1
			c0.6-1.4-1.3-2.7-3.1-2.6c-1.3,0.1-2.9,0.4-3.8,1.2c-2.7,2.5-5,5.4-7.6,8c-2.1,2.1-4.2,4.3-6.6,5.9c-2,1.4-3,3.2-3.8,5.2
			c-1.4,3.3-3.6,5.5-6.9,6.9c-4.4,1.8-8.7,3.9-13.2,5.7c-10.1,3.9-17.9,10.4-23.1,19.8c-1.9,3.5-3.9,7.1-5.3,10.8
			c-1,2.5-1.3,5.3-1.5,8.1c-0.5,7.6-0.2,15.3-1.4,22.8c-1.5,9.7-3.8,19.3-7.3,28.6c-2.7,7.1-3.1,14.6-2.8,22.2
			c0.3,7.1,0.5,14.2,0.6,21.3c0,3.2-1.2,4.1-4.1,3.3c-3.7-1.1-7.4-1.3-11.1-1.1c-5.4,0.2-11.5,5.6-12.4,10.8
			c-0.9,5.5-0.1,10.6,1.1,15.9c1.1,4.6,1.2,9.6,1.3,14.4c0,6.3,0.9,12.3,3,18.3c2.1,6.2,3.3,12.6,5.2,18.9c2.2,7,5.9,13.4,10.4,19.2
			c1.6,2.1,3.3,4.4,4.1,6.9c1.9,6.1,8.6,8.7,13,8.9c4.2,0.2,5.1,1.4,5.8,5.7c1.7,9.9,3.4,19.9,5.7,29.7c2.9,11.9,8.2,22.9,16.1,32.5
			c2.2,2.7,2.7,6.2,2.7,9.6c0.1,5.5,0,11,0,16.5c0,1,0.2,2,0.3,3"/>
		<path class="st0" d="M429.6,630.3c4,5.5,8.6,10.4,14.2,14.3c2.8,2,6,3.4,9.3,4.5c5.5,1.9,8.6,6.4,12.2,10.3
			c1.3,1.4,2.3,3.2,3.3,4.8c2.8,4.3,7.7,5.2,11.7,2.1c1.5-1.2,3-2.6,4.2-4.2c1.4-2,2.6-3.6,5.5-3.3c2.8,0.3,4.4,2,5.7,4
			c4.2,6.5,9.4,11.7,16.5,15.1c2.5,1.2,4.8,3.2,6.9,5.1c0.8,0.7,1,2.1,1.2,3.2c0.2,1.4,0.3,2.9,0,4.2c-0.5,2,0.4,4.3-2,6.1
			c-3,2.4-5.3,5.8-9.7,5.6c-3.8-0.2-6.2,2.5-6.6,8.1c-0.2,3.1,2.9,6.1,6.3,6.3c5.6,0.4,11-0.4,16.5-1.1c3.3-0.4,6.8,0,10.2,0.5
			c7.1,1.1,14.1,0.8,21-1.3c8.9-2.7,17.1-6.6,24-12.9c3.4-3.1,3.1-4.7,0.1-8.4c-4.4-5.3-10.5-8.4-15.9-12.3
			c-3.3-2.4-6.5-4.8-8.7-8.4c-3.2-5.2-2.5-11-2.2-16.5c0.2-4.5,1.5-9,2.3-13.5c1.1-5.8,2.2-11.6,3.3-17.4c0.8-4.5,1.3-9,2.2-13.5
			c0.5-2.8,0.2-5.3-1.2-7.8c-1.8-3.2-4.8-5-8.1-3.8c-7,2.5-11.1-3.4-11-8.5c0-7.1-1.5-13.9-3.1-20.7c-0.6-2.6-3-4-5.3-5.1
			c-2.5-1.2-5-2.5-5.1-5.7c0-1.6,0.2-3.2,0.6-4.8c0.4-1.7,1-3.5,1.8-5.1c2.1-4.2,1.9-8.9,3.2-13.2c0.1-0.5-0.1-1,0-1.5
			c1.4-5.7-1.2-9.5-6.9-9.9c-4.8-0.4-9.4,0.8-14.1,1.6c-5,0.8-9.9,1.1-15,0.4c-4.7-0.6-9.7-1-14.1,1.7c-3.9,2.4-7.9,2-12,1.1
			c-3.3-0.7-6.6-1.5-9.9-2.4c-1.2-0.3-2.5-0.9-3.3-1.8c-2.2-2.5-4.5-4.9-6-7.8c-3-6-7.8-10.3-12.5-14.6c-4.9-4.5-10.3-8.5-15.5-12.7
			c-0.7-0.6-1.6-1.1-2.4-1.5c-3.8-2-5.1-1.1-5.4,3.3c-0.1,1.1,0.1,2.2,0,3.3c-0.6,7.7-1.5,15.4-1.7,23.1c-0.3,7.7-0.3,15.4,0.4,23.1
			c0.5,5.4,1.7,10.9-0.3,16.5c-1.2,3.4-1,7.3-1.3,11c-0.5,5.6-0.9,11.2-1.2,16.8c-0.2,5.1,1,10,3,14.7c2.4,5.6,5,11.2,7.5,16.8"/>
		<path class="st0" d="M608.4,681c-0.5,0.3-1,0.5-1.7,0.8c1.5-3.6,3-6.6,4-9.9c0.5-1.6,0.3-4-0.7-5.2c-0.6-0.9-3-0.8-4.6-0.7
			c-3.8,0.4-7.7,1.8-11.4,1.6c-7.5-0.5-14.9-2.1-19.5-9.2c-2.5-3.9-1.8-8.3-1.7-12.6c0-0.8,1-1.5,1.4-2.1c3.7,1.8,7,3.7,10.5,5
			c7.1,2.6,13,0.3,16.7-4.2c1.3-1.6,2-3.7,2.7-5.7c2-5.5,5.5-10.8,4.4-16.8c-1.5-8.2-2-16.9-9.2-22.8c-1.3-1.1-2.9-2.1-4.5-2.7
			c-4.6-1.5-5.7-3.3-5.9-8.8c-0.3-5.7,0.4-11.3,1.7-16.8c1.3-5.2,1.7-10.7,3.2-15.9c1.1-3.9,3.3-7.6,4.6-11.5
			c0.8-2.2,1.2-4.6,1.2-6.9c0.1-7.9,0-15.8,0.1-23.7c0.1-4.7,0.7-9.4,0.8-14.1c0.1-3.7,0-7.4-0.3-11.1c-0.2-2.6-0.5-5.3-1.2-7.8
			c-1.1-4-3.1-4.3-6.3-1.5c-4.5,4-8.2,8.5-10.7,13.9c-1.3,2.8-1.6,6.1-2.2,9.3c-0.9,5.3-1.4,10.6-2.5,15.9c-1,5-2.1,10-4,14.7
			c-1.5,3.9-3.5,7.9-7.4,10.3c-2.3,1.4-4.4,1.4-5.6-0.9c-2.1-3.9-4.5-7.8-5.6-12c-0.8-3-0.6-6.8,0.6-9.8c2.6-6.8,0.7-8.7-6.5-11.1
			c-2-0.7-4.1-1.3-7-2.2c1.8-2.2,2.9-3.9,4.3-5.3c5-4.8,5.2-10.7,4.1-16.8c-0.6-3.5-1.7-7-2.3-10.5c-0.1-1,0.9-2.3,1.7-3.3
			c2.5-2.9,5.3-5.5,7.7-8.5c1.3-1.6,2.1-3.5,3-5.4c3-6,5.7-12.2,9.1-17.9c1.9-3.2,4.9-6,8.1-8c2.8-1.8,4.5-4,5-7.1
			c0.6-4,0.4-8.3-2.4-11.3c-6.7-7.1-13.5-14.1-20.7-20.7c-3.6-3.3-8.2-3.3-12.8-1.6c-2.9,1.1-6,2.4-9,2.6c-3.3,0.1-6.7-0.6-9.9-1.7
			c-9-3.1-15.1-9.5-19.2-17.9c-0.6-1.3-1.5-2.6-2.1-3.9c-1.3-2.9,1.3-8.3,4.5-8.6c6.2-0.5,12.1-2.6,18-4.4c3.6-1.1,6.1-0.2,8.8,2.1
			c6,5.1,12,10.1,18.3,14.7c3.1,2.3,6.8,3.9,10.5,5.4c5,2.1,7.7-0.2,6.5-5.6c-1.8-8.2-4-16.2-6.3-24.3c-1.3-4.8-4.2-8.8-8.1-11.6
			c-3.7-2.7-6.9-6.4-11.7-7.5c-1.6-0.4-4-1-5-0.2c-2.2,1.8-4,4.3-5.4,6.8c-0.5,0.9,1.7,2.5,0.8,4.1"/>
		<path class="st0" d="M409.8,594.3c-2.2-7.7-4.3-15.4-6.6-23.1c-1.3-4.4-0.6-8.3,1.8-12c1.8-2.7,2.7-5.7,2.7-9
			c0-7.5-0.2-15,0.1-22.5c0.2-5.5,1.1-11,1.7-16.5c0.1-0.7,0-1.4,0-2.1c0.2-5.7,0.5-11.4,0.6-17.1c0-3.2-0.4-6.4-0.5-9.6
			s1.1-4,3.8-2.3c3.3,2.1,6.4,4.4,9.3,6.9c8.7,7.3,17.3,14.7,25.8,22.2c3.2,2.8,5.9,6.1,8.7,9.3c3,3.4,7,4.7,11.1,5.3
			c4.3,0.7,8.6,0.9,12.9,1.2c4.1,0.3,8.2,0.5,12.3,0.6c3.2,0.1,6.4-0.1,9.6,0c6.8,0.3,13.2-1.4,19.8-2.6c4-0.7,8.2-1,12.3-0.9
			c3.7,0.1,6.8,5.3,5,9.1c-3.2,6.8-2,13.8-2.2,20.8c0,0.9,0.1,2.1,0.6,2.7c4.9,5.1,5.9,11.8,7.1,18.4c0.4,2.4,0.4,4.8,0.7,7.2
			s0.6,4.9,1.2,7.2c0.7,2.5,2.9,3.3,5,1.8c2.7-1.9,5.3-3.9,7.8-6c1.7-1.4,3.4-2.5,5.7-2.4c3.3,0.1,5.6,2.8,4.8,6
			c-4.2,15.1-6.5,30.6-11,45.6c-1.8,6.1-2.6,12.4-3,18.9c-0.3,4,0,7.8,0.7,11.7c0.8,4.7,2.9,8.4,7,10.8c6,3.5,12.2,6.8,18.3,10.2
			c1.7,1,3.4,2,5.1,3c3.9,2.4,4.1,3.3,1.8,7.2c-3.6,6.1-8.7,10.8-14.7,14.4c-7,4.2-14.3,7.5-22.5,9.1c-5.5,1.1-10.9,1.2-16.5,0.6
			c-4.8-0.5-9.8-0.2-14.7-0.1c-6.5,0.1-13,1.7-19.5-0.6c-4.8-1.7-9.1-3.6-12-8.1c-5.7-8.6-12.9-15.8-21.2-22
			c-5.2-3.9-9.3-9.2-11.4-15.5c-0.4-1.3-0.5-2.9,0-4.2c2.8-7.4,2-11.1-4.9-14.9c-6.3-3.5-11.9-7.5-16.4-13c-1.2-1.5-2.4-1.5-3.9-0.6
			"/>
		<path class="st0" d="M478.8,490.9c1.6,2.5,0.6,5.5,2.5,8.2c4.4,6.2,9.7,9.6,17.6,9.3c6.4-0.3,12.9,0.1,19.2-1.9
			c3.2-1,6.3-2.3,9.3-3.6c2.6-1.1,4.3-3.3,5.7-5.7c0.7-1.1,1.2-2.4,2.1-3.3c1.4-1.4,1.5-2.6,0.9-4.6c-1.7-5.8-5.4-9.7-10.9-12
			c-2.6-1.1-5.2-2.5-7.8-3.6c-4.2-1.7-8.6-2.3-13.2-2.1c-1.6,0.1-3.2,0.1-4.8,0c-3.9-0.3-4.8-2-3-5.4c2.4-4.6,3-9-0.5-13.6
			c-3.3-4.4-2.8-7.3,2.6-9.8c5.6-2.6,11.7-2.7,17.7-1.8c2.3,0.3,3.9,3.8,3.7,6.3c-0.3,2.2-0.4,4.5,0.1,6.6c0.3,1.1,1.9,2.1,3.2,2.7
			c1.5,0.7,3.2,1,4.8,1.2c5.6,0.9,13.1-2,14.4-7.8c0.7-2.8-0.1-4.2-3-4.8c-3.7-0.7-7.4-1.5-11.1-2.4c-0.8-0.2-1.6-0.6-2.1-1.2
			c-2.5-2.7-6-3.5-9.3-4.4c-5.2-1.5-10.2-4.1-15.9-3.3c-2.8,0.4-5.6,0.8-8.4,1.2c-5.2,0.8-10.4,1.7-15.6,2.4
			c-5.3,0.7-10.6,1.5-15.9,1.7c-4.2,0.2-8.4-0.4-12.6-0.9c-1.4-0.2-2.1-0.4-3.1,1.2c-3.9,6.6-2.1,18.2,5.4,23.2
			c4.9,3.2,8.3,7.8,10.9,13.1c0.4,0.8,1.9,1.2,2.9,1.5c1.4,0.3,2.8,0.1,4.2,0.4c1.8,0.3,3.6,0.8,5.4,1.2c3.6,0.8,5.5,3.9,4.8,7.8
			c-0.2,1.3-0.2,2.6-0.3,3.9"/>
		<path class="st0" d="M441.9,631.5c3.7-0.7,6.8,0.3,9.6,2.9c4.8,4.4,9.9,8.5,15,12.7c2.9,2.4,5.9,2.6,9,0.3
			c7.4-5.4,16.6-2.7,22.2,2.7c3.1,2.9,6.1,5.9,9.3,8.7c4.1,3.5,8.9,5.7,14.1,7.2c3.1,0.9,6.2,2,9.3,3c1.4,0.4,2.8,0.9,4.2,1.2
			c2.7,0.5,6-1.4,6.2-4.2c0.6-8.4,5.8-15.3,7-23.4c0.6-4.3,1.5-8.6,2-12.9c0.3-2.3,0.2-4.6,0-6.9c-0.4-4.3-3.4-6.5-7.2-7.8
			c-3.6-1.3-7.2-2.7-10.8-3.9c-3-1-3.7-3.3-4.2-6c-1.2-7.1-2.6-14.2-3.9-21.3c-0.5-3-1.7-5.8-3.7-8.1c-3.9-4.6-3.6-9.7-2.6-15
			c0.7-4.1,1.8-8.2,2.3-12.3c0.7-5.5-3-10.5-8.7-12c-3.2-0.8-6.6-1.9-9.9-1.7c-7.4,0.4-14.4,2.2-19.8,8c-1.3,1.3-2.9,2.3-4.1,3.7
			c-1.2,1.3-2.4,2.8-3,4.5c-0.9,2.5-2.5,3.1-4.9,3.7c-5.8,1.3-10.2-1.6-14-5c-4.6-4-9-8.3-12.1-13.7c-1.3-2.2-3-3.4-5.7-3
			c-1.7,0.3-2.7,0.6-3.8,2.6c-2.8,5.4-2.1,10.7-1.2,16.3c1,6.1,2.9,12,4.1,18c0.9,4.4,0.2,9-1.2,13.5c-1.2,3.9-1.5,8-0.5,12.3
			c1,4.7,1.2,9.6,1.9,14.4c0.5,3.2-0.7,6.2-2.8,8c-3.2,2.6-1.9,5.2-0.7,7.6c1.5,3.2,4.4,5.2,8,5.7"/>
		<path class="st0" d="M591.6,700.5c-0.6-1.4-0.2-2.4,0.9-3.6c4.7-5.3,8.6-11.2,10.8-18c1.2-3.5,0.9-4.1-2.7-3.9
			c-9,0.5-17.5-1.4-25.5-5.5c-7.6-3.9-11.5-10.2-12.1-18.8c-0.7-10.3,1.9-19.8,6-29.1c3.2-7.3,6.6-14.7,9.2-22.2
			c2.2-6.3,4.1-12.7,4.6-19.5c0.5-6.7,0.9-13.4,1.9-20.1c0.8-5.7,0.3-11.2-0.7-16.8c-0.4-2.4-2.6-3.5-4.4-1.7
			c-3.5,3.2-6.7,6.7-9.9,10.1c-2.7,2.8-5.2,5.9-8.2,8.3c-2.1,1.7-4.6,0.9-5.9-1.7c-1.2-2.7-1.9-5.8-2.8-8.7
			c-0.8-2.8-1.5-5.6-2.4-8.4c-1.6-4.8-2.6-9.6-2.1-14.7c0.3-2.5,0.7-5,0.9-7.5c0.1-1.6-0.3-2.9-2.4-2.7c-4.1,0.4-8.2,0.5-12.3,1.3
			c-8,1.4-16,3.2-24,4.7c-5.6,1-11.1,0.5-16.5-1.2c-2.2-0.7-4.1-2.1-6-3.1c-1.4-0.2-2.7-0.3-4-0.4c-0.5,0-1.1,0-1.5,0.3
			c-3.5,2.6-7.4,1.4-11.1,0.8c-7.5-1.2-13.4-5.5-18.9-10.4c-4-3.5-8.5-6.5-12.5-10c-6.9-6.1-14.3-11.8-20.2-19.1
			c-2.8-3.5-6.4-6.4-9.9-9.3c-3.6-3.1-6.8-1.8-7.1,3c-0.2,3.7,0.5,7.4,0.5,11.1c0,6-0.3,12-0.6,18c-0.1,2.4-0.3,4.8-0.6,7.2
			c-0.6,5-1.4,10-2.1,15c-1.4,10.7-4.4,21.2-3.3,32.1c0.4,3.5,0.9,7,1.4,10.8c-2.2,1.1-4.5,2.3-7,3.6c0.2,0.9,0.3,1.6,0.5,2.4"/>
		<path class="st0" d="M433.2,249.4c1,0.9,1.9,1.9,3,2.7c3,2.1,5.3,4.7,6,8.4c0.5,2.6,2,4.1,4.5,5.1c4.2,1.7,8.2,3.8,12.3,5.6
			c2.2,1,4.2,0.4,6-1.2c3.2-2.8,6.3-5.7,9.6-8.4c5.2-4.2,11.2-6.8,18-7.3c5.1-0.4,10.2-1.3,15.3-1.7c2-0.1,4,0.5,6,0.8
			c3.7,0.6,7.3,2.5,11.1,0.9c1.6-0.7,3.1-1.7,4.5-2.7c4.9-3.4,10-5.5,16.2-5.9c6.8-0.4,13.6-2.2,20.4-3.5c0.8-0.2,1.4-1.1,2.1-1.7
			c-0.7-0.6-1.3-1.4-2.1-1.8c-4.6-1.8-9.2-0.7-13.8,0.2c-9.3,1.9-18.5,5.2-28.2,4.5c-7.7-0.6-10.8-2.7-13.2-10.8
			c-1.8-6-0.8-11.7,0.9-17.4c0.3-1,0.7-2,0.9-3c1.2-5.2-0.2-7.2-5.7-7.1c-4.3,0-8.6,0.9-12.9,1.1c-4.7,0.2-9.4-0.1-14.1,0.1
			c-6.8,0.2-13.7-0.9-20.4,1.1c-1.9,0.6-4,0.5-6,0.7c-2.6,0.3-4.1,2.2-5.7,3.9c-0.3,0.3-0.1,1.2,0,1.8c1,6.5,2.3,13,2.9,19.5
			c0.5,5.3-1.1,8.2-5.3,9.9c-4.2,1.7-8.2,3.8-12.3,5.7"/>
		<path class="st0" d="M419.4,411.6c-1.9-4.1-1.7-8.6-1.4-12.9c0.4-6.3-1-12.2-3.1-18c-1-2.9-3.2-5-6.3-5.7
			c-5.1-1.2-8.5-4.2-10.8-8.7c-1.5-3-4.5-5.2-4.5-9c0-2.5-0.9-5-0.8-7.5c0.2-3.5,0.2-6.7-1.6-9.9c-1.7-3.1-0.5-8.5,2.7-11
			c3.4-2.6,6.6-5.5,11-6.4c2-0.4,4-1,6-1.5c1.7-0.4,2.6-1.4,3.1-3.3c0.7-2.9,2.3-5.6,2.8-8.4c0.6-3.8,1.7-7.6,0.8-11.7
			c-0.9-4.3,3.7-6.6,8.9-5.7c0.4,0.1,0.8,0.4,1,0.5c-0.5,3.2-1.5,6.3-1.4,9.4c0.1,2.6,1.3,5.3,2.3,7.8c0.9,2.1,0.5,3.2-1.5,4.3
			c-2,1.1-3.7,2.7-5.4,4.1c-2.1,1.7-3.7,3.7-4,6.6c-0.1,1-0.9,2.1-1.4,3c-2.2,3.5-2.1,6.3,0.6,9.6c1.7,2.1,3.7,3.9,5.3,6
			c1.2,1.6,2.9,1.4,4.2,1.1c3.5-0.9,7-1.8,9.7-4.7c2.8-3.1,5.6-6.1,9.5-7.9c1.7-0.8,2.9-1.2,3.3,1.2c0.3,1.7,0.9,3.4,1.2,5.1
			c0.4,2.4,1.4,3.9,3.9,4.6c4.1,1.1,7.4,0.7,10.6-2.7c2.7-2.9,6.2-5.3,9.5-7.5c4.1-2.7,8.7-2.2,13.2-0.9c1.9,0.6,4,1,5.7,2.1
			c4.7,3.2,5.4,6.2,3.7,12.5c-0.7,2.6-1.5,5.2-1.4,7.8c0.1,2.5,1.7,5,2.2,7.5c0.5,2.6,0.7,5.4,0.6,8.1c-0.1,2-3.8,3.9-6.8,4.2
			c-4.5,0.5-7.7-1.7-10.5-4.8c-1-1-1.9-2.1-3-3c-3.7-2.8-3.8-3.6-1.2-7.5c3.3-4.9,1.8-11.2-2.4-13.8c-2.5-1.5-5.2-1.2-7.8-0.6
			c-1.9,0.4-2.5,2-2.4,3.9c0,2.6,0,5.2,0,7.8c0,2.1-0.9,3.1-3,3c-0.6,0-1.2,0.1-1.8,0c-7.2-1.1-10.9,2.5-14,8.6
			c-4,7.9-9.2,15.2-13.6,22.9c-2.2,3.8-3.7,7.9-5.4,12c-1.4,3.4-2.5,7-5.4,9.6"/>
		<path class="st0" d="M330,294c-1-4-0.9-7.9,1.8-11.4c3.4-4.4,8.8-3.2,12-1.1c1.7,1.2,2.9,3.4,3.9,5.3c1.8,3.4,3,7.1,4.9,10.4
			c1.5,2.4,3.7,4.4,5.7,6.6c0.3,0,0.6,0,0.9,0c0.4-1.4,1-2.7,1.1-4.1c0.7-7,1.2-14,1.8-21c0.2-2.5,0.5-5,0.9-7.5
			c1.2-6.2,5.1-10.9,9-15.6c1.9-2.3,3.7-4.7,6-6.6c4.9-3.9,10.5-6.1,16.7-6.7c7-0.6,14-1.4,21-1.7c3.7-0.1,7.4,0.9,11.1,1
			c3.9,0.1,7.8-0.8,11.1-3c2.1-1.4,2.1-3.6,0.3-5.6c-3.8-4.5-8.6-7.1-14.4-8.1c-2.7-0.5-5.4-1.1-8.1-1.8c-3.5-0.9-6.1-5-6.3-9.6
			c-0.1-1.8-0.3-3.6-0.3-5.4c0-0.8,0.1-1.8,0.6-2.4c4.3-5,8.5-10.2,14.5-13.6c-2-3.7-5.9-3.2-9.1-3.7c-5.3-1-10.8-1-15.8-2.6
			c-4.4-1.4-6.9-5.9-3.7-10.3c1.2-1.7,1.6-3.9,2.8-5.6c5.5-8.3,12.4-15.3,21.3-20.1c3.7-2,7.9-2.1,12-2.7c4.3-0.7,8.6-1.4,12.9-2.4
			c4.9-1.2,9.6-3,14.4-4.1c2.6-0.6,5.4-0.3,8.1,0c3.9,0.4,7.8,1.4,11.7,1.7c5.2,0.4,10.4,0.5,15.6,0.7c6.5,0.2,12.2,2.1,16.9,7.1
			c1.9,2,5.2,2.7,8,3.7c2.3,0.8,4.7,1.3,6.2,3.4c-1.7,3.8-4.6,5.9-8.6,7.3c-2.5,0.8-4.8,2.7-6.9,4.5c-1.1,1-2.1,2.9-2.1,4.4
			c0.1,4,0.6,8.1,1.4,12c0.7,3.3,3.9,4.5,6.6,5.7c4.4,2,9,3.6,13.5,5.5c1.2,0.5,2.6,0.8,3.6,1.5c3.2,2.3,3.6,5,1.2,8.3
			c-2.1,2.9-4.6,5.5-6.5,8.5c-2.6,4.1-5,8.3-7.2,12.6c-1.2,2.4,1,5.4,4.4,6.9c5,2.2,10,1.4,15,0.6c5.2-0.8,10.4-1.7,15.6-2.4
			c3.7-0.4,7.4-0.7,11.1-0.6c8.6,0.2,16,2.9,21.3,10.1c3.5,4.7,7.3,9.1,11.1,13.5c2.1,2.5,4.6,4.7,6.5,7.3c2.4,3.2,3.8,6.9,3.7,11.1
			c0,1.5-0.3,2.9-1.8,3.2c-1.1,0.2-2.7,0.1-3.5-0.6c-4.3-3.8-9-7.2-10.9-13.1c-2.1-6.3-6.9-9.7-13.2-11.1c-3.1-0.7-6.4-0.7-9.6-1.3
			c-7-1.4-13.9-0.4-20.7,1.3c-0.9,0.2-1.9,0.7-2.7,1.2c-3.7,2.3-3.8,3.5-1.3,6.9c0.8,1.1,1,2.7,1.2,4.2c0.3,1.6-0.2,3.8,0.7,4.7
			c4.3,4.5,9.1,8.8,15.8,8.1c8.8-0.9,15.5,2.9,21.6,8.5c4.8,4.5,9.6,9,14.5,13.4c5.6,5,9,11.9,9.3,19.9c0.2,4.5,1.2,9,1.7,13.5
			c0.4,3.7,0.6,7.4,0.6,11.1c0,5.1-0.2,10.2-0.6,15.3c-0.2,3.2-2.1,4.2-5,5.6c-2.1,1-3.2-0.5-3.9-1.1c-5.8-5.7-13.1-9-19.9-13.1
			c-1.2-0.7-2.3-1.9-3.6-2.3c-1.7-0.5-3.9-1.2-5.3-0.5c-1.9,1-1.6,3.6-1.2,5.5c2.3,10.1,4.8,20.2,7.1,30.3c0.5,2.4,0.1,5,0.1,8.2
			c-4.7-3.2-9.1-5.9-13.2-8.9c-1.8-1.3-3.7-2.3-5.7-3.4c-6.1-3.3-12.9-5.7-18.1-10.7c-2.2-2.2-4.5-4.4-6.3-6.9
			c-2.5-3.6-6.1-2.9-9.4-2.5c-4.2,0.5-8.2,1.8-12.3,2.9c-1.2,0.3-2.6,0.7-3.6,1.5c-3,2.5-3.1,4.1-0.9,7.5
			c3.4,5.3,6.6,10.6,12.3,14.2c4.3,2.7,9,4.6,13.9,4.8c3.6,0.2,7.2-1.2,10.8-1.9c1.8-0.4,3.6-1.2,5.4-1.4c3.6-0.4,6.9-0.2,9.4,3.5
			c1.4,2.1,3.9,3.7,6.2,5.1c6,3.6,10.7,8.7,14.8,14c6.4,8.2,6.4,19.5-3.7,25.9c-5.1,3.3-7.7,8.2-9.9,13.5c-1.8,4.3-3.5,8.7-5.5,12.9
			c-1.1,2.3-2.5,4.4-4.2,6.3c-2.7,3.2-4.7,6.4-4.2,10.8c0.3,2.8,0.5,5.6,0.6,8.4c0,0.7-0.1,1.4-0.3,2.1c-1.5,4-2.8,8.1-4.5,12
			c-0.9,2-0.4,3.2,1.3,4.2c0.8,0.5,1.6,1,2.4,1.5c5,3.5,5.8,6.4,4.6,12.3c-1.1,5.5-0.8,10.9,4.1,15c2.3,1.9,4.1,2.2,5.6-0.4
			c2-3.2,3.8-6.6,4.8-10.2c1.6-5.8,3-11.7,3.6-17.7c1.1-10.7,5-19.8,12.7-27.3c2-2,3.8-4.2,6-5.9c2.7-2.2,5.4-1.3,6.2,2.1
			c0.8,3,1.2,6.2,1.5,9.3c0.4,4.5,0.7,9,0.6,13.5c-0.1,4.6-0.9,9.2-1.1,13.8c-0.1,2.9,0.5,5.8,0.5,8.7c-0.1,6.2-0.3,12.4-0.6,18.6
			c-0.2,3.2-1,6.4-1.1,9.6c-0.1,4.6-2.6,8.1-4.3,12c-3.4,7.5-5,15.3-4,23.4c0.3,2.6,2.4,5.5,4.4,7.4c4.6,4.3,8.3,9.2,11,14.8
			c0.7,1.5,1.1,3.1,1.9,4.5c0.4,0.8,1.5,1.8,2,1.7c0.8-0.2,1.7-1.1,2.1-2c0.5-1.3,0.6-2.8,0.6-4.2c0.2-4.3-0.2-8.6,1.2-12.9
			c1.1-3.5,3.6-5.6,7.9-5.9c6.1-0.4,7.3,0.3,8.3,6.3c1,5.9,1.7,11.8,0.9,18c-0.9,6.2-1.4,12.5-3.2,18.6c-0.7,2.2-1.8,4.3-3,6.3
			c-1.9,3.1-3.8,3.3-6.9,1.2c-1.6-1-3.1-2.2-4.8-3c-2.6-1.2-4-0.8-5.7,1.8c-1.2,1.9-2.5,3.9-3.3,6c-2.9,8-8.8,12.1-16.8,13.8
			c-1.8,0.4-3.5,1.1-5.4,1.8c1.6,3.5,4.4,4.6,7.5,4.8c4.9,0.2,9.8,0.2,14.7,0c6.4-0.3,8.6,2.3,6.6,8.4c-0.8,2.4-2,4.6-3,6.9"/>
		<path class="st0" d="M388.8,440.5c0.5,0.5,1.1,1.7,1.5,0c0.1-0.5-0.4-1.1-0.6-1.6c0.2-0.1,0.4-0.2,0.5-0.4c2.2,2.7,4.5,5.3,6.7,8
			c3.1,3.6,5.9,7.6,9.4,10.7c2.8,2.5,6.4,4.2,10.4,5.1c3,0.6,5.6,2.7,9,2.7c1.1,0,2.2,2.1,3.3,3.1c1.8,1.6,3.4,3.5,5.4,4.7
			c3.6,2.1,6.7,4.6,8.1,8.8c0,0.1,0.2,0.2,0.3,0.3c6.1,7,11.1,15.1,20.4,18.6c1.2,0.5,2.3,1.2,3.3,2.1c2.6,2.2,5.1,4.5,7.5,6.9
			c0.8,0.8,2.1,1.9,2,2.7c-0.1,1.1-1.2,1.9-2.8,2.3c-4.5,1-8.2,0.2-11.7-2.5c-7.2-5.5-14.6-10.5-21.5-16.3
			c-6.2-5.2-11.7-11.1-17.5-16.7c-2.1-2.1-4.3-4.1-6.3-6.3c-1.1-1.2-2.1-2.5-3-3.9c-1.8-2.8-4.8-3.6-7.6-4.7c-1-0.4-2.4-0.5-2.7,1.4
			c-0.3,2.1-1.1,4.2-1.1,6.3c-0.1,8.3,0.2,16.6-0.2,24.9c-0.3,5.8-1.4,11.6-2.3,17.4c-1.1,7-2.7,14-3.5,21
			c-0.7,5.5-0.8,11.2-0.6,16.8c0.2,5.1,1.3,10.2,2,15.3"/>
		<path class="st0" d="M517.5,247.6c-4.8-2.5-6.9-7-8.3-11.7c-1.1-3.7-1.4-7.8-1.9-11.7c-0.2-1.8,0-3.6,0-5.4
			c-0.1-5.9-4.8-9.6-10.5-8.1c-4.7,1.3-9.3,1.2-14.1,0.7c-5.6-0.5-11.4,0.2-17.1,0.4c-1.1,0-2.2,0.1-3.3,0.3c-5.9,1-7,5.8-7.7,10.5
			c-0.6,3.4-0.5,7-0.7,10.5c-0.3,8.3-2.4,10.5-9,13c-2.3,0.8-4.3,2.5-6.8,4.1c4.4,5.1,8,10,12.3,14c2.2,2.1,5.6,3.1,8.6,3.9
			c4,1.1,6.9-1.7,9.6-4.1c5.2-4.8,10.9-8.5,17.7-10.4c3.1-0.9,6.4-1.2,9.6-1.5c6-0.7,12-1.3,18-1.8c0.9-0.1,1.8,0.3,2.7,0.6
			c4.4,1.4,7.4,0.5,11-3.5c-3.3-1.8-6.6,0.6-9.8-0.1"/>
		<path class="st0" d="M522.6,340.9c1-1.9,2.4-2.4,4.5-1.5c2.2,0.9,4,0.1,5.4-1.8c0.6-0.9,1.3-1.7,1.8-2.7c2.2-4.8,5.1-8.8,9.9-11.4
			c3.3-1.8,3.7-6,1.6-9.3c-2.4-3.6-5-7.2-6.8-11.1c-2.2-4.8-3.4-10-5.3-14.9c-1.4-3.6-1.8-7.3-1.8-11.1c-0.1-4.3-2.4-8.5-5.7-10.3
			c-6.5-3.5-13.5-7.1-21.2-6.7c-8.9,0.4-17.7,1.8-24.3,8.9c-1.3,1.4-2.4,2.9-3.3,4.5c-1.4,2.5-0.5,5.4,2.1,6.9s5.2,2.8,7.8,4.2
			c4.6,2.6,6.7,7.6,2.3,12.5c-3.3,3.7-4.3,8.1-5.4,12.5c-0.3,1.2,1.1,3.4,2.3,4.4c4.7,3.8,9.6,7.5,14.7,10.8
			c5.4,3.5,11.1,6.6,16.7,9.9c-0.6,0.2-1.3,0.4-2.1,0.7"/>
		<path class="st0" d="M459.9,428.1c2.2,2.8,5.2,1.7,7.8,1.1c5.5-1.3,10.8-2.6,16.5-2.7c4.5-0.1,9-1.5,13.5-1.6
			c5.4-0.1,10.9,0,16.2,0.9c7.4,1.2,14.7,3.1,22.2,2.5c4-0.3,8-0.9,11.8-2.8c4.8-2.5,6.6-6.7,2.9-11.5c-2.4-3.1-5.5-5-9.9-4.9
			c-6.7,0.1-13.2,1.4-19.8,2.5c-3,0.5-6.1,0.2-9,1c-3.9,1.2-7.6,3.2-11.4,4.7c-1.7,0.7-3.6,1.3-5.4,1.5c-4,0.4-8,0.2-12,0.7
			c-3.3,0.5-6.4,1.7-9.6,2.6s-6.4,1.8-9.6,2.7c-1.9,0.5-3.8,0.8-4.5,3"/>
		<path class="st0" d="M536.1,334.5c1.8-2.4,3.2-5.3,5.5-7c1.6-1.2,4.5-1.2,6.8-1c2.2,0.2,4.2,1.5,6.3,2.3c0.7,0.3,2.1,0.5,2.3,0.3
			c0.5-0.8,0.9-2.1,0.6-2.9c-0.8-2-1.9-4-3.3-5.7c-3.4-4-7.2-7.6-10.4-11.8c-3.8-4.9-6.7-10.3-7.3-16.7c-0.2-1.7-1.1-3.4-1.8-5.1
			c-1.2-2.9-1.8-5.7-0.6-8.7c0.2-0.6,0-1.4-0.3-2.1c-2.2-5.9-4.8-11-11.6-13c-6.5-1.9-12.7-5.1-19.8-4.4c-10.9,1-21,3.7-27.6,13.5
			c-1.5,2.3-2.6,4.7-2.4,7.5c0.1,2.7,1.5,4.5,4.2,4.8c3.2,0.4,5.8,1.8,8.1,4.2c2,2.1,2.1,4.9,1.3,6.9c-1.7,4-4.1,7.7-6.8,11.1
			c-2.9,3.7-3.6,3.5-6.8,0.4c-0.6-0.6-1.3-1.1-2-1.7c-4,2-4,5.6-3.9,8.9c0,2.8,1.8,3.5,4.4,2.1c1.7-1,3.2-2.1,5.4-3.6
			c2.2,1.1,4.7,2.2,7.2,3.6c10.8,6.2,21.6,12.4,32.4,18.6"/>
		<path class="st0" d="M507.6,243.1c-1.7-5.9-2.2-11.9-2.8-18c-0.6-7.3-6.1-9.3-11.1-8c-3.5,0.9-7.5-0.3-11.3-0.4
			c-5-0.1-10.2-0.9-14.9,0.2c-4.8,1.1-7.2,5.6-8.2,10.6c-0.6,3.3-1.3,6.6-1.8,9.9c-0.8,6-4.8,8.7-9.9,10.5c-1.7,0.6-3.2,1.6-4.9,2.5
			c0.5,1.1,0.7,1.6,1,2c3.2,3.5,6.1,7.4,9.7,10.4c4.6,3.9,7.2,3.3,12.2,0.1c4.1-2.7,8.3-5.3,12.3-8.1c5.2-3.7,11-4.7,17.1-5.1
			c2.3-0.1,4.6-0.2,6.9-0.6c3-0.6,5.4-2.2,5.7-5.6"/>
		<path class="st0" d="M667.2,282.7c-0.8,0.2-1.6,0.7-2.4,0.6c-3-0.4-4.8,1.1-6,3.6c-2.6,5.1-4,10.4-2.7,16.2
			c1.2,5.3,2.6,10.6,3.5,15.9c0.4,2-0.1,4.2-0.2,6.3c-0.3,3.4-1,6.9,0.6,10.2c2.2,4.8,7.8,4.9,10.8,0.6c2.9-4.1,3.8-8.9,4.5-13.8
			c1-6.6,2-13.2,3-19.8c0.3-2.2,1.4-3.7,3.5-4.9c2.9-1.7,2.6-5.1,2.4-8c-0.2-3.7-0.8-7.4-1.2-11.1c-0.4-3.8-0.4-7.7-1.3-11.4
			c-2-8.2-8.5-9.9-15.2-9c-2.7,0.4-5.7,5.4-5.4,9c0.3,2.7,0.8,5.2,2.5,7.6c1.6,2.2,2.1,5.1,3.1,7.7"/>
		<path class="st0" d="M494.4,308.5c0.5,4.4,4.1,6.7,7,9.2c7.4,6.4,16.1,10.8,24.5,15.7c2,1.2,3.6,0.8,4.5-1.2
			c2.5-5.9,6.5-11.4,5.7-18.3c-0.3-2.8-1.5-5.4-2.3-8.1c-1.8-5.7-3.6-11.4-5.4-17.1c-0.3-1.1-1-2-1.5-3c-1.1-2.3-2.2-4.5-2.2-7.2
			c0-2.4-1-4.3-3.1-6.1c-3.9-3.4-8.3-5.3-13-6.7c-4.4-1.3-8.7,0.1-12.5,1.9c-3.9,1.8-4,5.9-1,9.1c3.1,3.3,5.4,7,6.6,11.4
			c1.4,4.9,0.3,9-3.1,12.6c-2,2.2-3.8,4.4-4.2,7.5"/>
		<path class="st0" d="M538.8,283.2c0.5,1.4,1.1,2.8,1.5,4.2c0.9,3,1.6,6,2.4,9c1.1,4.2,3,7.8,6.9,10.2c5.2,3.2,10.5,6.3,15.6,9.6
			c3.2,2.1,6.5,4.3,9.2,7c2.1,2.1,3.5,5,4.8,7.7c1.8,3.7,5.1,5.4,8.2,7.4c2.9,1.8,4.2,1.2,6.3-2.1c5.2-8.3,4.9-16.2-1.2-24
			c-3.7-4.8-7-10-10.6-15c-0.4-0.6-1.1-1-1.5-1.5c-1.4-1.9-3.2-3.6-4.1-5.7c-2.3-5.2-6.2-8-11.8-8c-5.1,0-9.5-2.3-14.1-4
			c-0.1,0-0.2-0.2-0.3-0.3c-6.8-3.1-8.8-2.8-11.4,5.1"/>
		<path class="st0" d="M383.1,436c-0.4-0.8-0.7-1.5-1.1-2.3c-0.4,2.4-0.4,2.4,1.9,2.9c-0.5,1.1-1,2.2-1.7,3.6
			c2.5,3.5,5.2,7.3,7.7,11.1c1.9,2.8,2.8,5.9,2.7,9.3c-0.1,4.2-0.1,8.4,0,12.6c0.1,4.1,0.6,8.2,0.5,12.3
			c-0.2,11.7-1.6,23.3-5.3,34.5c-1.4,4.2-2,8.7-2.4,13.2c-0.4,4.7-0.6,9.5,0,14.1c1.2,8.5,2.6,17,4.8,25.2c2.5,9,6.1,17.6,9.2,26.4
			c0.1,0.3,0.4,0.6,0.6,0.9"/>
		<path class="st0" d="M482.1,592.8c-0.3-0.4-0.9-1.1-0.9-1.2c2.7-2.8,2-6.3,2-9.6c0.1-4.3,0-4.3,3.9-5.4c3.5-1,7.1-2,10.5-3.3
			c4.2-1.6,6.2-1.3,8.7,2.2c1.9,2.6,4,5.2,3.9,8.7c-0.2,5.6,0.7,11,2.8,16.3c0.9,2.3,2.5,5.5-0.3,8.4c-0.8,0.8-0.8,3.7,0,4.6
			c3.2,3.6,6.2,7.6,11.3,8.8c2.4,0.5,4.8,0.8,7.2,1.2c4.9,1,6.2,2.4,6.6,7.2c0.2,2.6,0.2,5.2,0.6,7.8c1,6.4-2.6,10.7-6.3,15
			c-1.3,1.5-2.9,1.9-4.8,1.8c-4.1-0.2-8.2,0.7-12.3-0.5c-5.2-1.6-8.2-5.1-10.9-9.6c-2.4-3.9-5.5-7.6-9-10.4
			c-3.1-2.5-7.5-3.1-11.6-2.2c-3.9,0.9-7.6,2.4-11.4,3.5c-0.5,0.1-1.4-0.2-1.7-0.6c-2.1-2.8-5.3-4.4-6.3-8.3
			c-0.7-2.6-3.3-4.9-5.5-6.9c-2.7-2.4-3.9-5.6-4.6-8.8c-0.6-2.8-0.7-6,2.3-8.1c1.2-0.9,2.3-2.1,3.3-3.3c1.3-1.3,2.4-2.6,4.6-1.3
			c0.5,0.3,1.8-0.1,2.3-0.6c4.2-3.5,9.5-3.7,14.4-5.1"/>
		<path class="st0" d="M432.9,643.2c2.1-0.7,3.8-0.3,5.4,1.5c3.6,3.8,7.5,7.3,11,11.2c1.3,1.4,2.7,3.4,2.6,5
			c-0.3,8.4,3.2,15.1,8.6,21c4.7,5.1,10.1,9.5,14.9,14.5c4.1,4.3,7.8,8.9,11.4,13.5c4.2,5.3,9.6,8.7,16.2,9.5
			c5.2,0.6,10.6,0,15.9,0.1c5.1,0.1,10.2,0.4,15.3,0.6c4.5,0.1,9,0,13.5,0c1,0,2,0,3,0c0,0.4,0,0.8,0,1.2c-4,0-8,0.1-12,0
			c-6.4-0.1-12.8-0.4-19.2-0.6c-2,3.3-5.5,1-8.1,2.1c-0.1,0.1-0.3,0.2-0.3,0.3s0.2,0.2,0.3,0.3"/>
		<path class="st0" d="M492.9,245.8c3.5-0.3,6.9-1.2,7.4-5.1c0.6-4.9,1.8-10-1.9-14.4c-1.3-1.5-2.5-2.4-4.5-2.4
			c-2.8,0-5.4-0.2-8.1-1.1c-4.9-1.6-9.2-0.5-13.9,2.4c-5.5,3.5-7.5,8.2-8.9,14c-0.9,3.6-2.2,7-6.2,8.8c-2,0.9-3.7,2.6-5.4,4.2
			c-0.5,0.5-1.1,1.5-0.9,2c2.3,5.6,9.6,7.7,14.7,4.6c6.2-3.8,12.6-7.5,18.9-11.1C486.8,246.2,489.7,245.7,492.9,245.8"/>
		<path class="st0" d="M393,444.6c2.4,2.8,5,5.4,7.1,8.4c2.7,3.8,1.8,8.2,0.8,12.2c-0.8,3.7-0.8,7.1-0.6,10.8
			c0.3,7.7,0.1,15.4-0.5,23.1c-0.5,6.5-1.8,13-2.9,19.5c-0.8,4.8-2.4,9.6-2.9,14.4c-0.5,4.8-0.1,9.8-0.1,14.7c0,0.4,0,0.8,0,1.2
			c-0.2,6.3,0.8,12.5,2.1,18.6"/>
		<path class="st0" d="M523.8,337.5c0.6-2,1.8-0.5,2.4-0.2c2.7,1.1,4,0.9,5.7-1.6c0.9-1.3,1.6-2.6,2.4-3.9c2.1-3,4-6.2,6.3-9
			c2.9-3.4,3.4-7.1,1.2-10.9c-4-6.7-7.9-13.5-8.8-21.6c-0.3-3-2.1-5.8-2.8-8.7c-0.4-1.7,0-3.6-0.4-5.4c-1.2-5.5-5.1-9-9.9-11
			c-5.4-2.2-10.9-4.7-17-3.8c-5.8,0.9-11.8,1.3-16.5,5.5c-1.4,1.3-2.6,2.8-3.6,4.5c-1.6,2.7-0.8,4.9,1.7,6.9c2.8,2.1,5.8,4.1,8,6.6
			c5,5.7,2.9,9.5-0.3,13.4c-2.2,2.6-3.6,5.5-4.5,8.8c-0.6,2.1-0.4,3.9,1.2,5.4c3.1,2.7,6.2,5.2,9.3,7.8c6.7,5.4,14.2,9.5,21.9,13.2
			c0.9,0.4,1.7,1.1,2.4,1.6c-0.3,0.6-0.6,1.2-0.8,1.7"/>
		<path class="st0" d="M389.4,442c0.5,0.8,1,1.6,1.5,2.4c-0.7,0.9-1.4,1.8-2,2.7c3.5,4.5,5.9,9.3,5.7,15.3c-0.3,9.5-0.2,19,0,28.5
			c0.2,8.8-1.1,17.5-3.7,25.8c-3.2,10.2-4.2,20.5-3.4,30.9c0.5,6.8,2.1,13.6,3.2,20.4"/>
		<path class="st0" d="M598.8,282.6c-0.8-1.6-1.3-3.4-2.5-4.8c-3.7-4.3-5.8-9.6-8.6-14.5c-2.2-3.9-5-6.5-9.9-6
			c-2.9,0.3-5.7-0.2-8.4-1.7c-5.2-2.9-10.8-3-16.5-1.6c-2.3,0.5-4.3,1.1-5.2,2.9c0.8,2.8,1.7,5.2,2.1,7.7c0.6,3.9,1.8,5.3,5.8,6
			c0.6,0.1,1.5-0.2,1.7,0.1c2.5,3.2,5.5,1.4,8.1,0.5c2.8-0.9,5.1-0.5,7.6,1.2c7.2,4.9,15,8.7,23.3,11.6c1.8,0.6,1.8-0.3,2.4-1"/>
		<path class="st0" d="M394.2,449.8c-0.5-0.7-1-1.4-1.5-2.1c-0.2,0.1-0.4,0.2-0.7,0.2c0.3,0.9,0.4,2,1,2.7c2.8,3.7,3.6,7.9,3.3,12.3
			c-0.2,2.8-0.6,5.6-0.6,8.4c0.1,6.3,0.5,12.6,0.5,18.9c0.1,10.6-2.2,20.7-4.7,30.9c-1.1,4.4-2,9-2.4,13.5c-0.4,5.2-0.4,10.4,0,15.6
			c0.5,5.7,1.7,11.4,2.6,17.1"/>
		<path class="st0" d="M395.4,449.5c4.7,4.6,4.7,10.1,3.7,16.2c-0.7,4.5-0.1,9.2-0.2,13.8c-0.1,5.5-0.1,11-0.3,16.5
			c-0.1,2.5-0.2,5-0.6,7.5c-0.9,5.5-2,11-3,16.5c-0.8,4.4-1.7,8.8-2.4,13.2c-0.4,2.2-0.6,4.4-0.6,6.6c-0.2,9.6,0.3,19.1,2.7,28.5"/>
		<path class="st0" d="M392.4,446.5c0.8,0.6,2.4,1.4,2.3,1.8c-0.7,3.3,2.7,5,2.8,7.8c0.1,2.9,0,5.8,0,8.7c0,10.4,0.1,20.8,0,31.2
			c-0.1,7.9-2.1,15.5-3.8,23.1c-1.2,5.1-2,10.4-2.7,15.6c-0.5,3.6-0.9,7.2-0.6,10.8c0.7,7.3,1.9,14.6,2.9,21.9
			c0.1,0.5,0.2,1,0.3,1.5"/>
		<path class="st0" d="M497.4,402c-0.7,2.4-2.4,3.2-4.8,3c-3.2-0.3-6.4-0.5-9.6-0.6c-0.8,0-1.6,0.3-2.4,0.6c-3,1-6,1.9-9,3
			c-1.5,0.6-2.8,1.7-4.2,2.3c-4.8,2.2-9.6,4.4-14.4,6.6c-3.6,1.6-5.6,4.6-7.5,7.8c-0.9,1.5-1.8,3.2-3,4.5c-2.3,2.5-4.6,2.1-5.9-1.2
			c-3.6-8.6-1.6-18.2,9.9-20.1c5.6-0.9,11.2-2,16.8-3c0.4-0.1,0.9,0.2,1.2,0c2.1-1.4,4.2,2.8,6.4-0.2c1.5-2,3.6-3.6,5.3-5.5
			c1.3-1.4,2.8-1.6,4.5-1.5c4.5,0.4,9,1,13.5,1.1c2.2,0.1,3.2,0.7,3.3,2.8"/>
		<path class="st0" d="M515.7,275.1c2,0.9,2.6,2.4,3.1,4.5c0.7,2.4,2.2,4.7,3.8,6.6c1.9,2.2,2.1,4.7,2.7,7.2
			c0.9,3.8,2.5,7.4,3.5,11.1c1.3,4.7,3.6,9.3,3,14.4c-0.4,3.3-1.3,6.7-2.4,9.9c-0.7,2.1-2.4,2.5-4.4,1.2c-3.8-2.5-7.5-5-11.1-7.8
			c-4.2-3.3-8.3-6.7-12.3-10.2c-2.6-2.3-2.6-4.2,0-6.5c4.3-3.8,5.8-8.9,6.9-14.1c0.1-0.6,0.3-1.2,0.6-1.8c1.5-3,2-6.2,2.2-9.6
			c0.1-3.6,0.8-4.1,4.1-4.8"/>
		<path class="st0" d="M450.6,156.9c-3-0.3-6.1-0.3-9-1c-5.6-1.2-11.1-0.5-16.5,0.9c-2,0.5-2.8,2.1-3.6,3.6
			c-0.6,1.3-0.6,2.9-1.3,4.1c-1.1,1.8,0,3.4,0.8,4.1c3.2,3,6.7,5.7,10.1,8.5c3.3,2.8,7.6,3.2,11.4,3.1c5.9-0.1,10.8,2.4,15.9,4.3
			c3.8,1.5,7.7,2.7,11.7,3.5c1.7,0.4,3.6-0.5,5.6-0.8c-1.9-5.2-1.9-5.2,6-10.7c0-2.9-2.8-3.2-4.7-4.5c3.6-0.9,7-1.7,10.3-2.5
			c-0.3-1.8-0.4-3-0.7-4.2c-0.7-3-3.5-6-6.6-5.9c-4.4,0.3-8-1.8-12-2.6s-7.8-0.7-11.7,0.3c-1.6,0.4-3.6-0.3-5.4-0.5"/>
		<path class="st0" d="M464.7,509.8c1.9-0.6,2.6-2.1,1.1-3.5c-1.8-1.8-3.7-3.9-6-4.7c-7-2.4-10.9-8-15-13.6c-2.8-3.8-5.6-7.8-9.1-11
			c-3-2.8-6.8-4.9-10.5-6.9c-1.4-0.7-3.5-0.1-6-0.1c1.6,2.7,2.8,5.1,4.3,7.2c6.5,9.3,14.9,16.5,24.8,22c2.4,1.3,4.3,3.7,6.7,5.3
			c3,2,6.2,3.6,9.3,5.4"/>
		<path class="st0" d="M502.2,421c2,2.1,4.8,1.4,7.2,2c4.2,1.2,8.6,2.1,12.9,2.7c7.5,1.2,15.1,2.1,22.5-0.9c0.9-0.4,1.9-0.6,2.7-1.2
			c3.7-2.8,5.4-4.6,1-9.6c-2-2.3-4.2-3-7.2-3c-6.6,0-13.1,1.2-19.5,2.5c-1.8,0.4-3.6,0.4-5.4,0.6c-5.4,0.6-9.8,3.5-14.1,6.6"/>
		<path class="st0" d="M469.2,340.5c2,0.9,4.2,1.5,6,2.8c5.1,3.8,5.1,9.3,4.2,14.9c-0.5,3-0.5,5.6,2.2,7.5c1.9,1.4,3.8,2.6,5.7,3.9
			c2,1.3,3.9,0.2,5.3-0.7c1.6-1.1,2.4-3.1,1.9-5.3c-0.4-1.7-1-3.4-1.5-5.1c-1.3-4.2,0.4-8.1,1.3-12c1.5-6.3,0.2-9.5-4.3-11.9
			c-4.4-2.3-13.1-2.8-16.5,2c-1,1.5-2.7,2.4-4.1,3.6"/>
		<path class="st0" d="M353.4,371.5c-0.5-1.8-1.5-3.6-1.4-5.4c0.2-2.9-1-5.1-3.2-6.2c-3.7-1.9-5.6-5.1-7.1-8.5
			c-2.1-5.1-3.7-10.5-5.5-15.8c1.5-0.8,2.7-1.5,3.3-1.8c1.9,2.9,3.6,5.7,5.5,8.3c0.4,0.5,2.1,0.7,2.6,0.3c4.1-3.7,7.9-7.7,12.1-11.3
			c3.1-2.7,1.8-6.1,1.6-9c-0.3-3.8-0.7-8-3.5-11.1c-2.3-2.6-4.7-5.1-7.2-7.5c-2.5-2.3-4-4.9-4.3-8.4c-0.2-2.6-0.9-5.3-1.8-7.8
			c-1-3-4.4-4.4-8.3-3.9c-1.9,0.3-3.9,2.8-4.2,5.7c-0.1,1.4,0.2,2.8,0.3,4.2"/>
		<path class="st0" d="M327,292.9c1.3,5.1,2.7,10.2,3.9,15.3c0.6,2.4,1.3,4.8,1.1,7.2c-0.4,6.9,1.6,13.3,3.1,19.8
			c1.7,7.1,3.2,14.4,7.2,20.7c1,1.6,2.2,3.2,3.6,4.5c2.5,2.3,4.4,4.9,4.8,8.4c0.2,1.3,1.1,2.4,1.7,3.6"/>
		<path class="st0" d="M666.6,329.1c0.8-1.1,1.9-2.1,2.4-3.3c3.6-8.6,5.9-17.5,5.2-27c-0.1-1.8-0.3-3-2.7-3.1
			c-1.4-0.1-2.7-1.5-3.9-2.6c-1.4-1.3-3-2.7-4.8-2c-2.3,0.9-3.2,3.2-3.7,5.6c-1.5,7.9,1.4,14.8,4.9,21.6c1.2,2.3,2.2,4.3,1.5,6.9
			c-0.3,1.2,0.5,2.6,0.8,3.9"/>
		<path class="st0" d="M418.2,280.9c3.5-1,7-1.9,10.5-3.1c0.7-0.2,1.2-1.9,1.2-2.9c0.1-3.8-0.1-7.6,1.8-11.1
			c0.8-1.6-2.4-6.1-4.4-6.2c-6.4-0.4-12.8-0.7-18.6,2.9c-3.7,2.3-4.3,3.9-1.4,6.9c2.4,2.5,2.8,5.5,3.4,8.5c0.4,2.2,0.9,3.7,3.4,3.9
			c1.3,0.1,2.6,0.9,3.9,1.4"/>
		<path class="st0" d="M358.2,372.6c2.9,3.2,6.8,1.4,10.2,1.7c1.2,0.1,2.4-0.4,3.6-0.5c1.8-0.2,3,0.3,3.3,2.4
			c0.7,4.2,1.6,8.4,2.4,12.6c1.2,7,2,14,3.4,21c1,5.4,2.5,10.6,3.9,15.9c0.4,1.7,1.2,3.4,1.7,5.1c0.1,0.5-0.1,1-0.7,1.5
			c-0.5-0.9-0.9-1.8-1.4-2.8"/>
		<path class="st0" d="M567.3,723.3c-9.7,4.7-19.9,6.4-30.6,5.7c-4.7-0.3-9.4-1.1-14.1-1.1c-5.4,0-10.8,1.1-16.2,1
			c-3.6-0.1-7.6-0.2-10.5-3.1"/>
		<path class="st0" d="M348.3,335.1c7.1-3.4,9.8-8.6,8.4-15.9c-1.4-7.2-6-12.1-12-12.6c-0.8,6.5-2,13-2.3,19.5
			c-0.2,3.8,1.3,7.5,5.6,9"/>
		<path class="st0" d="M417.6,248.8c-1-2.2-3.1-2-4.8-2c-11.9-0.4-22.9,2.7-31,11.5c-5.8,6.3-10.3,14.1-8.8,23.5
			c0.2,1.3,0.9,2.5,1.4,3.9c2.8-1.3,3.4-3.6,3.9-5.7c0.9-3.5,1.6-7,2.4-10.5c1.1-4.6,4-7.7,8.1-9.6c4.7-2.2,9.5-4.2,14.4-6
			c3.6-1.3,7.4-2,11.1-3.1c1.2-0.4,2.2-1.2,3.3-1.8"/>
		<path class="st0" d="M424.2,634.2c-0.3,1.1-0.7,2.2-1.1,3.7c6,7.3,10.8,15.7,14.9,24.5c2.8,6.2,5.9,12.2,9.9,17.7
			c4.3,5.9,9.6,10.8,14.8,15.8c3,3,6.2,5.8,9.3,8.7"/>
		<path class="st0" d="M479.7,446.1c0.1-2.1-1.1-2.8-3-2.7c-1.3,0-2.7-0.3-3.9,0.1c-6.4,1.6-8.6,8.7-4.5,14.1
			c1.6,2.1,2.8,4.4,4.2,6.6c0.9,1.5,5.9,3.2,7.8,2.7c2.8-0.7,6-3.9,5.9-6.3c0-1.5-0.3-3.1-2-3.9c-2.8-1.2-3.6-3.8-3.9-6.6
			c-0.1-1.2-0.2-2.4-0.3-3.6"/>
		<path class="st0" d="M574.8,307.8c-2.3-2.5-4.5-5.1-6.9-7.5c-2.1-2.1-4.2-3.8-4.3-7.2c-0.1-2.1-0.9-4.4-3.7-5.2
			c-1.4-0.4-2.5-1.8-3.6-2.9c-2.6-2.5-5.8-3.5-9.3-3.5c-1,0-2.5,0.7-2.9,1.5c-0.3,0.7,0.4,2.2,1.1,2.9c1.4,1.3,3.1,2.3,4.8,3.3
			c2.8,1.7,3.6,4.2,2.7,7.2c-0.7,2.6-0.6,4.7,1.8,6.7c5.3,4.4,11.3,6.2,18,5.9c0.7,0,1.4-0.6,2.1-0.9"/>
		<path class="st0" d="M580.5,472.6c1.1-0.5,2.5-0.7,3.2-1.5c5.1-5.9,10.1-11.9,15-18c0.5-0.6,0.3-2.6-0.3-3.1
			c-1.5-1.3-3.3-3.1-5.6-2.1c-3.5,1.5-6.9,3.2-7.9,7.7s-2.8,8.8-4.1,13.2c-0.4,1.2-0.4,2.4-0.6,3.6"/>
		<path class="st0" d="M459.6,774.7c1.3,0.4,2.6,0.9,3.9,1.1c0.5,0.1,1.7-0.5,1.7-0.8c0.2-1.8,0.6-3.8,0-5.3
			c-1.5-3.5-2.6-7.2-5.2-10.4c-1.4-1.7-2.8-2.6-4.6-3.2c-1.3-0.4-2.6-0.6-3.9-0.9c-2.3-0.7-3.5,0-3.6,2.4s0,4.8,0,7.2
			c0,2.6,2.4,3,3.9,3.8c2.9,1.6,6,2.9,9.4,4.5c-0.7,0.5-1.2,0.9-1.6,1.2"/>
		<path class="st0" d="M360.3,378.4c2.4,0.5,4.8,1.1,7.2,1.5c3.6,0.6,4.7,3.3,5.3,6.3c0.6,3.1,0.7,6.2,1.3,9.3
			c1.3,7.9,2.7,15.8,4.2,23.7c0.5,2.8,1.7,5.4,2.6,8.1"/>
		<path class="st0" d="M506.7,563.2c3.5-0.8,5.4-3.1,6-6.6c0.4-2.2,1.5-4.1,0.7-6.6c-1.6-5.2-5.8-8.8-11.2-8.6
			c-0.9,0-2.3,0.9-2.6,1.8c-0.7,1.9-1.1,3.9-1.3,6c-0.4,4.5,1.9,8.2,3.9,12c0.8,1.6,2.6,1.8,4.2,2.1"/>
		<path class="st0" d="M499.5,726.3c4.4,1.4,8.9,1.8,13.5,1.5c5.6-0.3,11.2-1.1,16.8-1.1c4.9,0,9.8,0.9,14.7,1
			c2.4,0.1,4.8-0.5,7.2-0.8"/>
		<path class="st0" d="M563.4,266.5c-0.8-2.3-0.1-4.4,0.9-6.6c1.2-2.8-0.1-4.7-3.3-4.7c-2.8,0-5.6,0.2-8.4,0.6c-1,0.1-2.1,1-2.6,1.8
			c-0.2,0.3,0.8,1.6,1.4,2.3c0.6,0.6,1.4,0.9,2.1,1.3c-1.4,4.8-1.1,5.4,3.2,7.1c0.4,0.2,0.8,0.4,1.2,0.6c3.3,2,4.3,1.6,5.4-2.1"/>
		<path class="st0" d="M510.9,744.3c-0.9,4-1.9,4.8,3.6,5.7c1.5,0.2,3,0.3,4.5,0.6c2.1,0.5,3.8-0.5,3.9-2.7c0.1-1.9,0-3.8,0-5.7
			c0-2.8-2.4-4.9-5.1-4.1c-1.9,0.5-3.6,1.7-5.4,2.3c-2.2,0.7-2.1,2-1.2,3.6"/>
		<path class="st0" d="M339.6,336.6c2.1,4.9,3.9,9.9,6.4,14.6c1.6,3,5,3.9,8,5.2c0.8,0.4,1.6,0.8,2.4,1.2c1.6,0.8,2.6,2.2,2,3.9
			c-1,3.3-2.4,6.4-3.6,9.5c-1.8-2.1-0.7-4.5-0.2-6.8c0.5-2.2,0.5-3.8-1.8-4.8c-1.2-0.5-2.4-1.2-3.6-1.8c-4.4-2.3-5.7-6.8-7.5-10.8
			c-1.2-2.6-2.2-5.3-3-8.1c-0.4-1.4,0.1-3,0.2-4.5"/>
		<path class="st0" d="M445.5,341.1c0.8,4.9,1.8,9.6-0.1,14.8c-1.9,5.1-4.5,9.8-7.5,14.3c-1.5,2.3-3.8,4.2-6,6
			c-1.2,1-3.6,0.1-3.8-1.5c-0.5-4.5-1-9.1,1.8-13.2c4.2-6.1,8.4-12.2,12.6-18.3c0.6-0.9,1.8-1.4,2.7-2.1"/>
		<path class="st0" d="M555,352c-1.1-5.6-4.4-9.7-9-12.9c-2-1.4-3.4-0.8-4.5,1.5c-1.5,3.2-1.4,4.7,0.9,6.9c2.2,2,4.5,3.9,6.9,5.7
			c0.8,0.6,2,0.5,3,1c2,0.9,2.3-0.5,2.7-1.8"/>
		<path class="st0" d="M435.6,728.5c2-1.4,0.2-2.6-0.4-3.6c-1.3-2.4-1.4-5.5-3.8-7.2c-1.7-1.3-5.3-0.7-5.6,0.9
			c-0.2,1.5,0.3,3.4,1.2,4.7c1,1.6,2.6,2.9,4.1,3.9c1.2,0.8,2.4,1.4,2.7,3.1c0.4,2.1,2.1,0.9,3.4,0.8c-0.5-0.8-1.1-1.5-1.6-2.3"/>
		<path class="st0" d="M329.1,295.2c1.2,4,2.2,8.1,3.7,12c1,2.5,1.1,5,1.1,7.5c0,5.3-0.4,10.6,1.8,15.6"/>
		<path class="st0" d="M522.6,342.6c0-0.6,0-1.2,0-1.9c-1.2,0.5-2.1,1.1-3,1.2c-4,0.4-5.6,2-5.7,6c0,0.4,0,0.8,0,1.2
			c0,4.6,1.5,6.2,6,5.3c2.4-0.5,4.5-2.3,6.5-3.9c0.5-0.4,0.2-2.3-0.3-3.1c-0.9-1.6-2.3-2.8-3.5-4.2"/>
		<path class="st0" d="M330,294.6c1.4,3.7,2.9,7.4,4.2,11.1c1.6,4.5,2,9,1,13.8c-0.5,2.4,0.4,5,0.7,7.8c1-0.5,1.8-0.9,2-1
			c0.3-3.5-0.2-6.9,1-9.8c1.6-4.1,0.6-7.4-1.1-10.9c-1.6-3.3-3.2-6.6-4.8-9.9"/>
		<path class="st0" d="M536.1,421.5c2.3-0.5,4.6-1,6.9-1.5c0.5-0.1,0.8-0.8,1.2-1.2c-0.4-0.4-0.8-1.1-1.2-1.1
			c-3.4-0.1-6.8-0.2-10.2,0c-1.4,0.1-2.7,1-4,1.5c0,0.3,0,0.6,0,0.9c2.3,0.5,4.7,1,7,1.5"/>
		<path class="st0" d="M448.8,748.8c3.1-3.9,1.6-9.7-2.7-10.8c-1.1-0.3-2-1.3-3-1.4c-1.2-0.1-2.4,0.3-3.6,0.5c0.2,1,0.2,2.1,0.6,3
			c1,1.8,2.3,3.3,3.2,5.1c1.1,2.3,3.1,3,5.1,3.9"/>
		<path class="st0" d="M332.1,296.5c1.2,3.1,2.5,6.2,3.6,9.3c0.6,1.8,1.1,3.8,1.2,5.7c0.2,5,0.2,10,0.3,15"/>
		<path class="st0" d="M441.9,422.1c2.2-1.8,4.5-3.5,6.5-5.5c0.5-0.5,0.6-1.9,0.3-2.6c-0.4-0.8-1.4-1.6-2.3-1.8
			c-3.5-0.8-7.9,3.1-6.8,8c0.2,0.7,1.3,1.2,2,1.8"/>
		<path class="st0" d="M361.8,245.8c0.7-4.2,1.4-8.4,2.1-12.6c0.1-0.5,0-1,0-1.7c-3.1,2.4-4.1,10.6-2.1,14.6"/>
		<path class="st0" d="M439.2,648c2.6,3,5.5,5.8,7.7,9.1c1.5,2.3,1.9,5.3,2.8,8c0.9,2.6,1.8,5.2,2.7,7.8"/>
		<path class="st0" d="M524.4,348.6c-1.2-1.6-2.3-3.3-3.7-4.7c-0.3-0.3-1.4-0.2-2,0c-1.5,0.4-3,3.5-3,5.7c-0.1,2.4,1.6,3.3,3.3,3.9
			c1.8,0.6,4.6-1.9,5.4-4.5"/>
		<path class="st0" d="M469.8,357.4c0.8-0.3,1.6-0.6,2.4-0.9c3.2-1.1,4.2-3.4,3-6.6c-1.3-3.5-4.4-5-7.5-3.6c-1.3,0.6-1.9,1.5-1.8,3
			c0.1,1.1,0.2,2.2,0,3.3c-0.5,3,0.9,4.3,3.6,4.8"/>
		<path class="st0" d="M537.9,267.4c0.6-0.4,1.2-0.9,1.8-1.2c2-0.9,1.6-2.4,0.5-3.6c-1.3-1.5-2.8-2.8-4.5-3.8
			c-0.6-0.4-2.1,0.1-2.9,0.6c-0.5,0.3-0.7,1.5-0.6,2.3c0.3,3.3,2.2,5.1,5.4,5.7"/>
		<path class="st0" d="M502.5,448c1.7,1.7,3.4,3.4,5,5.1c2.2-1,3.9-3.8,3.3-5.7c-0.3-0.9-1.6-1.8-2.6-2.1c-2.4-0.5-4.6,0-6,2.3"/>
		<path class="st0" d="M439.5,652c1.4-1.3,1.7,0.5,2,0.9c3.2,3.7,5,8.2,6.4,12.8c0.8,2.6,2.1,5,3.2,7.5"/>
		<path class="st0" d="M472.8,704.2c-0.3,0.3-0.6,0.6-1,0.9c4.2,4.8,8.1,9.8,12.5,14.3c3.1,3.2,6.9,5.5,11.3,6.7"/>
		<path class="st0" d="M436.5,650.8c-0.6,0.4-1.2,0.8-1.8,1.2c3.5,7.2,6.9,14.5,10.4,21.6c1-0.3,1.9-0.6,3-1c-0.1,0.7,0,0.9-0.1,1
			c-0.8,1.3-1,0-1.5-0.3"/>
		<path class="st0" d="M435.6,651.7c3.6,4.6,5.6,10,7.8,15.3c0.8,2,2,3.8,3,5.7"/>
		<path class="st0" d="M502.5,725.8c5.6,2.1,11.2-0.1,16.8,0.3c0-1.1,0-1.9,0-2.9c4,0,8,0,12,0c0,1,0,1.7,0,2.8c6.6,0,13.2,0,19.8,0
			"/>
		<path class="st0" d="M519.3,721.8c5.9,0.2,11.8,0.4,17.7,0.6c0.4,0,0.8,0,1.2,0c0,0.4-0.2,1,0,1.2c0.4,0.3,1,0.6,1.5,0.6
			c1.3,0.1,2.6,0.2,3.9,0c1-0.1,2.8,1,2.9-1.4c0-0.2,3-0.3,5.4-0.5c-0.9,1.3-1.2,2.4-1.7,2.5c-3.6,0.3-7.2,0.6-10.8,0.6
			c-2.5,0-5-0.4-7.5-0.6"/>
		<path class="st0" d="M601.8,691.2c1.3-0.5,2.6-1,3.9-1.5c-1.3-1.2-0.1-2.2,0.5-3.3c0.7,0.5,1.5,1.1,2.8,2.1
			c-5.8,6.3-11.6,12.4-17.3,18.6"/>
		<path class="st0" d="M377.7,228.4c2.3-2.2,5.6-3.5,6.2-7.2c-3.5-0.3-6.9,3.6-6.5,7.2"/>
		<path class="st0" d="M410.7,421.9c0.9-3-0.4-5.7-3.3-6.6c-0.6,4.5,0.1,6,3,6.9"/>
		<path class="st0" d="M413.4,764.8c1.5-1.6,3.1-3.2,4.4-4.8c0.2-0.3-0.3-1.2-0.6-1.7c-1-2.1-2-4.1-3.1-6.3
			c-2.4-0.2-0.4,2.5-1.6,3.4c-0.4,0.3,0.3,1.9-0.1,2.3c-3.4,2.8-1.1,5,0.7,7.3"/>
		<path class="st0" d="M626.7,613.5c-1.2,4-4.5,7.2-4.2,11.7c0.1,0.8,0.2,1.7,0.6,2.4c0.5,0.7,1.3,1.3,2.1,1.4c0.4,0,1.2-1,1.5-1.7
			c1.1-3.1,1.8-6.2,1.3-9.6c-0.2-1.1,0.4-2.4,0.5-3.6c0-0.3-0.7-0.6-1.1-0.9"/>
		<path class="st0" d="M503.1,724.8c5.2,0,10.4,0,15.6,0"/>
		<path class="st0" d="M469.8,694.5c0.3-0.2,0.8-0.6,0.9-0.6c4.7,4.7,9.7,9.2,13.2,15c0,0-0.2,0.2-0.3,0.3"/>
		<path class="st0" d="M405.6,273.6c-0.4-0.6-0.8-1.2-1.2-1.8c-1-1.4-2.5-1.8-3.9-0.8c-1.6,1.2-0.6,2.8,0.3,3.8s2.4,2.3,3.8,0.4
			c0.3-0.4,0.6-0.8,0.9-1.2"/>
		<path class="st0" d="M440.4,654c3.2,3.9,5,8.5,6.1,13.2c0.4,1.6-0.2,3.4,0.8,5.1"/>
		<path class="st0" d="M437.1,650.8c0.1-0.1,0.2-0.3,0.3-0.3c0.2,0,0.5-0.1,0.6,0c0.8,1,1.6,2,2.4,3.1v0.2c-0.1,0.1-0.3,0-0.3,0
			c-0.2,0.4-0.7,0.9-0.6,1.2c2,4.6,4.2,9.2,6.3,13.8"/>
		<path class="st0" d="M536.4,336.6c-1.6,2.2-1.5,5.9-5.4,6c-1.1,0-2.2,0-3.3,0c-0.9,0-1.8-0.2-2.7-0.3"/>
		<path class="st0" d="M582.6,270.6c2.2-1.9,2.1-2.5-0.9-5.4c-2.8,3.1-2.7,4.6,0.6,5.7"/>
		<path class="st0" d="M558.3,406.5c1.6-1.6,0.1-2.6-0.9-3.2c-0.8-0.5-2.1-0.4-3.2-0.5c-0.1,0.4-0.3,0.8-0.4,1.3
			c1.4,0.8,2.8,1.6,4.2,2.5"/>
		<path class="st0" d="M519.9,724.2c3.6,0,7.2,0,10.8,0"/>
		<path class="st0" d="M519.9,725.5c3.6,0,7.2,0,10.8,0"/>
		<path class="st0" d="M420,417c0.5,3.5,1,6.9,1.6,10.4c-0.4,0.2-0.7,0.4-1.1,0.5c-1.4-1.5-3.1-2.8-4.3-4.4
			c-0.4-0.6-0.1-2.1,0.3-2.9c0.7-1.4,1.7-2.6,2.6-3.9"/>
		<path class="st0" d="M672.3,267.4c-2.2,1.8-1.3,3.2,0.5,4.6c2.3-2.2,2.3-2.2-0.2-4.6"/>
		<path class="st0" d="M518.1,721.2c-3.2,0.2-6.4,0.4-9.6,0.6"/>
		<path class="st0" d="M466.5,694.8c0.2,1.1,0,2.6,0.7,3.2c1.9,1.7,2.9,4.7,6.2,4.3"/>
		<path class="st0" d="M497.7,721.8c-0.2-0.7-0.8-1.7-0.5-2c0.7-0.9,2.7-0.1,3.5,1.1c0.1,0.1-0.1,0.5,0,0.6c3.2,1.9,6.7,3,10.5,2.7
			c0.1,0,0.3-0.2,0.3-0.3c0-0.2,0-0.4,0-0.6"/>
		<path class="st0" d="M409.5,604c0.8,2.4,1.6,4.8,2.4,7.2c0.2,0.5,0.3,1,0.6,1.5c2.4,3.9,4.8,7.8,7.2,11.7c1.4,2.3,2.9,4.5,4.2,6.9
			c1.1,2.1,2.5,3,4.9,2.8c0.9-0.1,1.8,0.7,2.7,1.1"/>
		<path class="st0" d="M628.2,613c0.1-1.3,0.2-2.6,0.4-3.9c-0.4,0-0.7-0.1-1.1-0.1c-0.2,1.4-0.3,2.9-0.5,4.3"/>
		<path class="st0" d="M588.6,709.5c-2.4,2.1-4.8,4.2-7.2,6.3c-2.2,1.9-5.1,1.1-7.6,2.1c0.3,0.5,0.6,1,1,1.7
			c0.9-0.6,1.8-1.2,2.7-1.8"/>
		<path class="st0" d="M592.5,701.8c-0.9,0.7-1.8,1.4-2.7,2.1c-0.8,0.7-2.3,0.7-2.2,2.4c0,0.4-0.7,0.9-1.1,1.2
			c-4,2.6-7.9,5.3-12,7.7c-0.8,0.5-2.2,0.1-3.3,0.1"/>
		<path class="st0" d="M552.3,219.7c0.7-0.5,1.4-1,2.7-2c-1.6-0.2-2.7-0.3-4.4-0.5c0.6,0.9,0.8,1.3,1.1,1.6"/>
		<path class="st0" d="M384.6,436.9c-0.3,0.8-0.7,1.7-1,2.6c1.6,2.3,3.4,4.8,5.2,7.3"/>
		<path class="st0" d="M353.4,372c0.4,0.2,0.8,0.4,1.2,0.6c0.1-0.3,0.2-0.6,0.3-0.9c-0.3-0.1-0.7-0.4-0.9-0.3
			c-0.6,0.3-1.1,0.7-1.6,1c1.3,2.8,2.6,5.3,5.8,6.2"/>
		<path class="st0" d="M398.4,567c0.5,2.3,1,4.6,1.5,6.9"/>
		<path class="st0" d="M558.9,725.2c-2.4,0.4-4.8,0.8-7.2,1.2"/>
		<path class="st0" d="M501.3,720.7c2,0.2,4,0.3,6,0.7c0.5,0.1,0.7,1.4,1.2,1.7c0.7,0.3,1.6,0.1,2.4,0.1"/>
		<path class="st0" d="M574.5,719.8c-2.3,1.2-4.2,3.4-7.2,3"/>
		<path class="st0" d="M348.3,209.4c-0.5,2.4-1.1,4.7-1.6,7.3c3.4-0.4,3.7-2.3,1.6-6.4"/>
		<path class="st0" d="M539.1,723c2.2,0,4.4,0,6.6,0"/>
		<path class="st0" d="M512.1,723.7c2.2,0,4.4,0,6.6,0"/>
		<path class="st0" d="M525.6,343c0.9,0.5,1.8,1.1,2.7,1.5c3.8,1.5,5.2,0.9,7.2-2.7c0.3-0.5,0.6-1,0.9-1.5"/>
		<path class="st0" d="M599.1,694.3c0.4-0.7,0.8-1.4,1.4-2.5c1.4,4.1,1.2,4.4-2.6,4.9c0.6,3.5-2.1,5.6-6,4.5c-3.3-0.9-4-0.3-3.6,3.3
			"/>
		<path class="st0" d="M439.5,269.8c2-1.3,2-1.3,1.4-3.6c-0.7,1.2-3.3,1-1.7,3.3"/>
		<path class="st0" d="M576,711.3c-0.5-1.8-1.4-0.6-2.1-0.3c-3.1,1.6-6.2,3.2-9.3,4.8"/>
		<path class="st0" d="M427.2,634.5c1,1.5,1.9,3.1,3,4.5c1.9,2.5,3.3,5,1.2,8.1c1,1.6,2,3.2,3,4.8"/>
		<path class="st0" d="M531.9,723.7c2,0,4,0,6,0"/>
		<path class="st0" d="M587.1,705.4c-1-0.1-2-0.2-3.4-0.4c0.2,1.3,0.3,2.2,0.4,3.1"/>
		<path class="st0" d="M612.6,679c0.6-0.9,1.2-1.8,1.8-2.7c0.1-0.1,0.4,0,1.4-0.1c-1.4,2.4-2.6,4.4-3.8,6.4"/>
		<path class="st0" d="M491.4,719.5c-0.1-0.9-0.2-1.8-0.4-3.4c2.3,1.2,4.3,2.3,6.4,3.4"/>
		<path class="st0" d="M462.3,688.8c1.2,1.7,2.1,3.9,3.7,5c4.3,3.1,7.9,6.5,8.7,12.1c0.2,1.5,1.3,1.5,2.4,0.6"/>
		<path class="st0" d="M537.6,263.5c-0.8-0.5-1.5-1-2.3-1.5c-0.2,0.3-0.3,0.6-0.5,0.8c0.7,0.5,0.7,2.6,2.5,1"/>
		<path class="st0" d="M436.8,646c-0.3-0.6-0.8-1.2-0.9-1.8c-0.5-3.6-0.5-3.6-4.2-3.6"/>
		<path class="st0" d="M609.6,679c1.2-0.8,1.2-0.8,3.2,0.4c-2,2.5-3.9,4.9-5.9,7.4"/>
		<path class="st0" d="M420.6,619c-1-2.3-2.9-1.3-4.5-1.2"/>
		<path class="st0" d="M486.6,713.2c-1.7,0-3.4,0.2-5.1-0.1c-0.8-0.1-1.6-0.8-2.1-1.5c-0.8-1.1-0.4-2.1,0.5-3
			c1.5-1.5,1.1-2.7-0.9-3.3c-1.4-0.4-2.8-1-4.2-1.5"/>
		<path class="st0" d="M447,668.5c0.7,1.5,1.4,3,2.1,4.5"/>
		<path class="st0" d="M459,688.5c-1.9,2.2,1,2.4,1.6,3.6c0.7,1.5,2.1,1.5,3.5,0.9"/>
		<path class="st0" d="M450.9,675.3c-2.3-2.1,1.3-1.3,1.2-2.7c1.2,1.9,2.3,3.5,3.3,5.1"/>
		<path class="st0" d="M598.2,696c0.7-1.1,1.2-2.1-0.7-2.7c-1.5,1-2.7,2.2-1.7,4.2"/>
		<path class="st0" d="M447.9,676c-0.3,0.3-0.9,0.8-0.9,0.9c1.6,2.1,2.7,5,6.3,4.2"/>
		<path class="st0" d="M451.2,676.2c3,1.5,6.3,2.7,7.5,6.3"/>
		<path class="st0" d="M426.6,626.5c1,1.2,2,2.5,3.1,3.9c-2.1,0-3.8,0-5.5,0"/>
		<path class="st0" d="M419.4,620.1c0.7-0.6,1.4-1.2,2.2-1.9c1.7,2.6,3.3,5.2,5,7.9c-1.7,0-3.4,0-5.1,0"/>
		<path class="st0" d="M481.5,711.7c0,0.6,0,1.2,0,1.8c-0.1,2.3,0.4,2.7,3.3,2.4"/>
		<path class="st0" d="M454.8,685c0.2,2.1,1.1,3.1,3.6,4.2"/>
		<path class="st0" d="M472.5,699.3c1.8-0.2,3.1,0.3,3.3,2.4"/>
		<path class="st0" d="M393.6,578.8c-0.2-0.5-0.3-1-0.6-1.9c2.3-0.9,4.8-1.8,7.3-2.8c0.4,1.4,0.8,2.7,1.2,4"/>
		<path class="st0" d="M484.2,709.2c2.6,2.1,3.7,4.9,4.2,8.1"/>
		<path class="st0" d="M475.2,702.3c2.3-1.4,3,0,2.6,1.8c-0.5,2.2,0.6,3.3,1.9,4.5"/>
		<path class="st0" d="M580.2,709c-0.7-0.2-1.6-0.8-2.1-0.5c-1,0.4-1.8,1.3-2.7,2"/>
		<path class="st0" d="M407.1,603.7c0,1.2,0,2.4,0,3.9c1.1,0,2.2,0,3.3,0"/>
		<path class="st0" d="M393,572.5c0.4,1.2,0.8,2.4,1.2,3.6"/>
		<path class="st0" d="M546.9,723.7c1.2,0,2.4,0,3.6,0"/>
		<path class="st0" d="M601.2,265c-0.7-0.8-1.4-1.6-2.3-2.6c-0.7,3.5-0.5,3.7,2.3,2.9"/>
		<path class="st0" d="M503.7,722.5c1.2,0,2.4,0,3.6,0"/>
		<path class="st0" d="M339,329.5c0.4,1.2,0.8,2.4,1.2,3.6"/>
		<path class="st0" d="M430.8,635.8c2.2,0,2.4,0.3,1.8,3"/>
		<path class="st0" d="M338.1,330c0.3,1.2,0.6,2.4,0.9,3.6"/>
		<path class="st0" d="M420.6,619.5c1.6,0.7,0.8,1.9,0.6,3"/>
		<path class="st0" d="M390.6,441c0.6,1.2,1.2,2.4,1.8,3.6"/>
		<path class="st0" d="M552.9,219.9c1,1.2,2.1,1.3,3.3,0.4c0-0.2,0-0.3,0-0.4c-0.1,0-0.2,0-0.3,0c-0.4-0.4-0.8-0.8-1.2-1.2"/>
		<path class="st0" d="M399,574.8c0.3,1.1,0.6,2.2,0.9,3.3"/>
		<path class="st0" d="M361.5,370.5c0.4,0,0.8,0,1.2,0c-0.1-0.3-0.2-0.6-0.3-0.9c-0.4,0.2-0.8,0.4-1.2,0.6"/>
		<path class="st0" d="M426.6,637c-1.6,2.4-1.6,2.5,0.9,3"/>
		<path class="st0" d="M586.2,708.3c-0.1,1.1-0.3,2.2-0.4,3.2c-1.1-0.3-2-0.6-2.9-0.8"/>
		<path class="st0" d="M467.7,691.2c0.9,0.9,1.8,1.8,2.7,2.7"/>
		<path class="st0" d="M591.6,703.5c-0.1,1.1-0.2,2.2-0.3,3.3"/>
		<path class="st0" d="M411.6,611.5c-0.9,0.3-1.8,0.8-2.7,0.8c-0.7,0-1.4-0.5-2.1-0.8"/>
		<path class="st0" d="M409.5,600.7c0,1,0,2,0,3c-0.3,0-0.6,0.1-0.8,0.1c-0.2-1.5-0.4-3.1-0.7-4.6"/>
		<path class="st0" d="M491.4,716.5c-1-0.6-2-1.2-3-1.8"/>
		<path class="st0" d="M496.5,720c-0.7,0.4-1.4,0.8-2.1,1.2c-0.3-1.4-0.2-3.5-2.7-1.8"/>
		<path class="st0" d="M564.3,718.2c0.3-0.6,0.6-1.2,0.9-1.8c-0.6-0.2-1.3-0.6-1.8-0.5c-0.7,0.1-1.2,0.7-1.8,1.1"/>
		<path class="st0" d="M411,598.2c0.3,0.9,0.6,1.8,0.9,2.7"/>
		<path class="st0" d="M338.4,326.5c0,1,0,2,0,3"/>
		<path class="st0" d="M402.6,582c0.3,0.9,0.6,1.8,0.9,2.7"/>
		<path class="st0" d="M459.9,688c0,0.9,0,1.8,0,2.8c0.8-0.1,1.6-0.3,2.4-0.4"/>
		<path class="st0" d="M550.8,722.5c1.1-0.3,2.1-0.5,3.3-0.8c0,1.4,0,2.3,0,3.5c-0.6,0.1-1.5,0.4-2.4,0.6c-0.1,0-0.3,0.2-0.3,0.3
			s0.2,0.2,0.3,0.3"/>
		<path class="st0" d="M428.4,639.3c-1.1,0.9-1.9,2.1-0.3,2.9c1.2,0.5,0.7,3.9,3.3,1.9"/>
		<path class="st0" d="M399.9,595.2c0.4,0.9,0.8,1.8,1.2,2.7"/>
		<path class="st0" d="M395.7,584.5c0.3,0.9,0.6,1.8,0.9,2.7"/>
		<path class="st0" d="M412.8,603c1.5,3.2,1.5,3.2,0.6,4.5"/>
		<path class="st0" d="M454.2,679c1.9,0.7,1.3,4.2,4.2,3.9"/>
		<path class="st0" d="M382.2,430.9c0.8,1.1,1.7,2.2,2.6,3.4c-0.2-0.1-0.7-0.3-1.1-0.4"/>
		<path class="st0" d="M574.8,713.2c-0.7,0-1.4,0-2.1,0c0.1,0.4,0.2,0.8,0.3,1.2"/>
		<path class="st0" d="M415.8,613c2.7-0.6,1.3,1.1,1.2,2.1"/>
		<path class="st0" d="M382.2,427.2c0.4,0.8,0.8,1.6,1.2,2.4"/>
		<path class="st0" d="M383.4,430.2c0.7,0.9,0.6,2.6,2.4,2.4c0,0.4,0.1,0.9,0,1.2c-1.6,3.5-0.3,6.3,1.9,9c0.1,0.2,1-0.2,1.8-0.4
			c-0.8-0.5-1.3-0.8-1.8-1"/>
		<path class="st0" d="M381,427.9c0.4,0.8,0.8,1.6,1.2,2.4"/>
		<path class="st0" d="M379.8,428.5c0.4,0.8,0.8,1.6,1.2,2.4"/>
		<path class="st0" d="M554.1,720c0.7-0.1,1.4-0.2,2.8-0.4c-1.9-0.5-1.9-0.4-3.4,0.7c-0.6,0.4-1.6,0.3-2.4,0.4"/>
		<path class="st0" d="M552.9,719.5c-0.8,0.1-1.6,0.2-2.4,0.3"/>
		<path class="st0" d="M401.7,582.7c0.3,0.8,0.6,1.6,0.9,2.4"/>
		<path class="st0" d="M484.5,716.5c0.6,1.1,1.2,2.2,1.9,3.3c0.1,0.1,0.9-0.4,1.4-0.6"/>
		<path class="st0" d="M485.7,718c1.6-0.3,3.2-0.6,4.8-0.9"/>
		<path class="st0" d="M355.2,375c0.9,0.5,1.8,1,2.7,1.5"/>
		<path class="st0" d="M407.7,595.8c0,0.8,0,1.6,0,2.4"/>
		<path class="st0" d="M451.5,679.8c-2,2-0.3,2.6,1.2,3.3"/>
		<path class="st0" d="M331.2,294c0.2,0.7,0.5,1.4,0.7,2.2c0.2,0,0.4,0,0.6-0.1c0-0.9,0-1.8,0-3.1c-1.3,0.7-2.4,1.2-3.8,1.9
			c-0.1-0.8,0.1-1.8-0.3-2.4c-2.1-3.7-2.3-4.7-0.9-8.7c1.8-5.1,7.2-7.8,12.6-6.6c6.4,1.4,10.9,5.5,14.7,10.5
			c0.3,0.4,0.8,0.8,1.2,1.3c0.4-0.5,1-1,1.1-1.6c0.3-2.6,0.4-5.2,0.7-7.8c0.8-7.4,1.6-14.8,2.4-22.2c0.3-2.8,0.4-5.6,0.6-8.4
			c0.1-1,0.6-2,0.9-3"/>
		<path class="st0" d="M337.8,334.9c0.2,0.7,0.4,1.4,0.6,2.1"/>
		<path class="st0" d="M415.2,623.8c-1.1,1.3-1,1.6,0.9,2.4"/>
		<path class="st0" d="M416.7,628.2c1.4,2.1,3,4.1,4.1,6.3c1.1,2.1,2.7,2.9,4.9,3"/>
		<path class="st0" d="M390,446.5c0.7,0.5,1.4,1,2.1,1.5"/>
		<path class="st0" d="M392.4,569.5c-0.2-0.7-0.5-1.4-0.7-2.2c-0.3,0-0.5,0.1-0.8,0.1"/>
		<path class="st0" d="M337.2,327c0.1,0.7,0.2,1.4,0.3,2.1"/>
		<path class="st0" d="M336.6,330c0,0.8,0,1.6,0,2.4"/>
		<path class="st0" d="M438.6,649.5c0.6,0.6,1.2,1.2,1.8,1.8"/>
		<path class="st0" d="M381,431.5c0.3,0.7,0.6,1.4,0.9,2.1"/>
		<path class="st0" d="M481.8,710.8c-0.4-0.6-0.8-1.2-1.3-1.8c0.1-0.2,0.2-0.5,0.3-0.7c0.9,0.3,1.9,0.6,2.8,0.9"/>
		<path class="st0" d="M600,692.2c-1.4-0.8-2.3-0.8-2.1,1.2"/>
		<path class="st0" d="M557.1,721.8c2-0.3,0-2.5,1.5-3c-1-0.7-2-1.1-3,0"/>
		<path class="st0" d="M602.4,688.6c-0.8,0.3-1.7,0.4-2.4,1c-0.5,0.4-0.6,1.3-0.9,2"/>
		<path class="st0" d="M558.3,724.2c-0.6,0-1.2,0-1.9,0c0.1-0.8,0.2-1.6,0.3-2.6c-0.8-0.5-1.8-0.9-2.8,0.2"/>
		<path class="st0" d="M458.1,683.5c-0.1,0.7-0.2,1.4-0.3,2.1"/>
		<path class="st0" d="M388.5,443.5c0.4,0.7,0.8,1.4,1.2,2.1"/>
		<path class="st0" d="M453.6,682.5c1.9,1.5,3.8,3,5.7,4.5c0.5,0.4,1.2,0.4,1.8,0.6"/>
		<path class="st0" d="M405.9,592.8c-0.2,1.5-0.4,3-0.6,4.5"/>
		<path class="st0" d="M430.5,645c0,2.4,2.2,1.4,3.3,2.1"/>
		<path class="st0" d="M449.4,678c0.5,0.5,1,1,1.5,1.5c2.1-2.6,2.1-2.6,0.6-4.8c-0.3,0.5-0.6,1-0.9,1.5"/>
		<path class="st0" d="M572.1,716.2c0.2,0.9-1.3,2,0.3,2.7c-0.3,0.4-0.6,0.8-0.9,1.2"/>
		<path class="st0" d="M524.7,342.6c-1.2-0.1-2.4-0.2-3.6-0.3"/>
		<path class="st0" d="M436.2,648c0.4,0.7,0.9,1.3,1.6,2.4c0.5-1.4,0.7-1.9,0.8-2.4"/>
		<path class="st0" d="M404.7,594.3c-0.2,0.8-0.4,1.6-0.6,2.4"/>
		<path class="st0" d="M500.1,725.5c0.9-0.1,1.8-0.1,3.1-0.2c-1.4-0.8-2.3-1.3-3.1-1.9"/>
		<path class="st0" d="M572.1,713.5c-0.7,0.7-1.4,1.4-2.1,2.1"/>
		<path class="st0" d="M415.2,611.8c0.3-0.4,0.6-0.8,0.9-1.2c-0.4-0.1-0.8-0.3-1.2-0.3c-0.6,0-1.2,0.2-1.8,0.3"/>
		<path class="st0" d="M408.3,613c0,1.1-0.1,2.2,1.5,1.2"/>
		<path class="st0" d="M560.4,722.2c-1,0.2-1.8,0.6-1.5,1.8c0.1,0.3,0.4,0.9,0.6,0.9c0.5-0.1,1.4-0.3,1.4-0.6c0-0.6-0.3-1.2-0.5-1.8
			"/>
		<path class="st0" d="M606.6,681.7c-2.6,1.9,0.9,1.9,0.9,3c-0.3,0.6-0.6,1.2-0.9,1.8"/>
		<path class="st0" d="M403.5,597.3"/>
		<path class="st0" d="M403.2,594"/>
		<path class="st0" d="M408.6,595.2c0.4,0.4,0.7,0.9,1.2,1.2c1,0.5,1.1,0.7,0.6,1.8c-0.2,0.5-0.2,1-0.3,1.5"/>
		<path class="st0" d="M414,620.8c-1.3,1.5-1.3,1.5,0.3,3.6"/>
		<path class="st0" d="M412.8,619.5c-1.3,1.3-1.3,1.3,0.3,1.8"/>
		<path class="st0" d="M410.1,617.5c0.6,0.9,1.2,1.8,1.8,2.7"/>
		<path class="st0" d="M404.4,586.8c1.4,3.2-1.9,1.7-2.8,2.8c-0.5-1.2-0.9-2.3-1.4-3.6c1.2-0.3,2.4-0.7,4-1.1c0,0.6,0.2,1.5,0,1.5
			c-1.6,0.7-3.3,1.2-5.4,1.9c0.1,0.3,0.2,0.9,0.4,1.4c0,0.1,0.2,0.2,0.3,0.3c0.1-0.1,0.2-0.2,0.3-0.3"/>
		<path class="st0" d="M400.8,594.7c0.3,0.5,0.6,1,0.9,1.5c0.3-0.7,0.6-1.4,0.9-2.1"/>
		<path class="st0" d="M402.6,600c0,0.6,0,1.2,0,1.8c0.3-0.1,0.7-0.1,0.9-0.3c0.1-0.2,0-0.6,0-0.9"/>
		<path class="st0" d="M414,608.8c0.5,0,1,0,1.5,0c-0.1,0.4-0.2,0.8-0.3,1.2"/>
		<path class="st0" d="M417,625.5c-0.3,0.6-0.6,1.2-0.9,1.8c0.5,0,1,0,1.5,0"/>
		<path class="st0" d="M399,593.5c0.4,0.4,0.8,0.8,1.2,1.2c0.3-0.3,0.6-0.6,0.9-0.9c-0.6-0.2-1.2-0.4-1.8-0.6"/>
		<path class="st0" d="M394.8,582.7c0.3,0.5,0.6,1,0.9,1.5c0.7-0.7,1.4-1.4,2.1-2.1c-0.2-0.2-0.3-0.5-0.5-0.7
			c-0.7,0.3-1.5,0.6-2.2,1"/>
		<path class="st0" d="M561.3,719.5c-0.7-0.1-2.1,0.4-0.9-1.2c-0.8,0-1.6,0-2.4,0"/>
		<path class="st0" d="M567,717.7c-1.2-0.2-1.6,0.3-1.5,1.5c0.1,1.3,0,2.6,0,3.9c-0.3,0.1-0.6,0.1-0.9,0.2c-0.3-1.2-0.6-2.3-0.9-3.5
			c-0.2-0.8,0.8-2.3-1.2-2.1"/>
		<path class="st0" d="M558.6,721.2c1,0.2,2,0.4,3,0.6"/>
		<path class="st0" d="M390.6,445.2c1.3,1.8,1.6,0.7,1.8-0.6"/>
		<path class="st0" d="M581.4,707.8c-1.3-1.3-1.3-1.3-1.8,0.3"/>
		<path class="st0" d="M519.3,334.9c0.8,0.6,1.6,1.2,2.4,1.8"/>
		<path class="st0" d="M386.4,439.5c0.4,0.3,0.9,0.7,1.5,1.1c0.4-0.6,0.9-1.4,1.7-2.7c-1,0.2-1.3,0.2-1.7,0.3
			c0.2,0.4,0.4,0.8,0.6,1.2"/>
		<path class="st0" d="M395.4,576c0.6,1.1,0.5,1.7-0.9,2.2c-1.2,0.4-0.6,1.5-0.3,2.3"/>
		<path class="st0" d="M554.7,723.7c0.5,0.1,1.1,0.3,1.6,0.4c0,0.2-0.1,0.3-0.1,0.5c-0.5,0.1-1,0.2-1.5,0.3"/>
		<path class="st0" d="M435.6,649.2c0.8,1,1.6,2,2.4,3c0.1,0.1,0.6-0.2,0.9-0.3"/>
		<path class="st0" d="M561.3,724.2c0.5-0.2,1.4-0.4,1.4-0.6c-0.2-1.9-0.4-3.8-0.9-5.7c-0.3-1.4-1.2-1.1-2.1-0.3"/>
		<path class="st0" d="M447,674.8c0.8,1,1.7,1.9,2.7,3.1c0.3-0.5,0.6-1,0.9-1.6"/>
		<path class="st0" d="M445.2,673.8c0.6,0.9,1.2,1.8,1.8,2.7"/>
		<path class="st0" d="M354.3,373.2c0.3,0.5,0.6,1,1.1,1.6c0.5-0.7,1.1-1.5,1.8-2.4c-0.5-0.2-1-0.3-1.5-0.4
			c-0.1,0.2-0.3,0.4-0.4,0.6c0.3,0.3,0.6,0.6,0.9,0.9"/>
		<path class="st0" d="M406.2,607c-0.3-0.5-0.6-1-0.9-1.6c-2,3.3,2.3,0.9,2.1,3c-0.7-0.2-1.4-0.3-2-0.5"/>
		<path class="st0" d="M403.5,603.7c0.4,0.8,0.8,1.6,1.2,2.4"/>
		<path class="st0" d="M610.5,679.8c-0.7,0.9-1.4,1.8-2.1,2.7"/>
		<path class="st0" d="M451.8,679.5c0.5,0.5,1,1,1.5,1.5"/>
		<path class="st0" d="M450.6,677.5c0.8,0.4,1.6,0.9,2.4,1.2c1,0.4,0.6,0.9,0.3,1.5"/>
		<path class="st0" d="M430.2,641.8c-0.9,0.6-1.8,1.2-2.7,1.8"/>
		<path class="st0" d="M405.9,609c0.7,1.9,1.7,0.7,2.7,0.3"/>
		<path class="st0" d="M403.5,589.2c0,0.9,0,1.8,0,2.7"/>
		<path class="st0" d="M386.4,437.5c0,0.4,0,0.8,0,1.2c0,0,0.5,0.1,0.6,0c0.2-0.3,0.3-0.6,0.3-0.9c0-0.5-0.2-1-0.3-1.5"/>
		<path class="st0" d="M387,432c1,1.2-0.7,2-0.6,3c0,0.5,0.2,1,0.3,1.5"/>
		<path class="st0" d="M570.6,719.2c0.3,1.4-0.6,2.1-2.1,1.8c-0.4-0.1-0.8-0.2-1.2-0.3"/>
		<path class="st0" d="M402,597.7c0,0.4,0,0.8,0,1.2c0,0.5,0,1,0,1.5"/>
		<path class="st0" d="M497.7,720.7c0.6,1,1.9,2.2-0.6,2.4"/>
		<path class="st0" d="M448.5,676c0.5-0.7,1-1.4,1.7-2.5c-0.9,0.2-1.4,0.3-2,0.4c0.3,0.3,0.6,0.6,0.9,0.9"/>
		<path class="st0" d="M565.5,716.5c0.6,0.7,1.2,1.4,1.8,2.1"/>
		<path class="st0" d="M588,708.3c1.8,1.5,1.8,1.5,3.3-1.5"/>
		<path class="st0" d="M406.2,593.5c1.8,0.8,1.5-0.5,1.5-1.5c-1.1,0.1-2.2,0.2-3.3,0.3"/>
		<path class="st0" d="M403.2,598.5c0.2,0.5,0.4,1,0.6,1.5"/>
		<path class="st0" d="M397.8,581.4c1.2-0.4,2.4-0.8,3.6-1.2"/>
		<path class="st0" d="M473.1,242.4c-1.7,1-3.6,1.9-2.2,4.8c1.6,0,3.6,0.5,4.5-1.8c0.7-1.8-1-2.2-2.1-3"/>
		<path class="st0" d="M523.5,361.2c-3.3,0.8-6.7,1.4-9.9,2.4c-4,1.3-5,3.7-2.4,7.1c3.7,4.8,7.3,9.8,13.1,12.7
			c6.5,3.3,13.2,3.7,19.8,2.1c4.3-1,4.5-4.8,1.8-7.6c-3.5-3.5-7.4-6.6-11-10c-0.8-0.8-2-1.5-2.3-2.4c-1.6-4.3-4.9-4.9-8.8-4.5"/>
		<path class="st0" d="M521.1,363.6c-1.9,0.4-3.8,0.7-5.7,1.2c-1.3,0.4-2.4,1.3-3.8,2.1c3.7,5.8,7.1,11,13.4,13.4
			c2.4,0.9,4.9,2,7.5,2.3c1.8,0.2,3.9-0.5,5.7-1.1c1.8-0.7,0.9-2.4,0.3-3.2c-1.4-1.8-3.2-3.2-4.7-4.9c-2.1-2.3-4.4-4.4-6.2-6.9
			c-1.6-2.2-3.5-3.2-6.1-3"/>
		<path class="st0" d="M361.5,365.5c-2.6,1.1-2.7,3.5-2.3,5.7c0.2,0.9,2,2.1,2.8,2c2.7-0.4,5.2-1.4,7.8-2.3c0.5-0.2,1.1-1.1,1.2-1.7
			c0.5-3.1,0-3.6-3.3-3.6c-2,0-4,0-6,0"/>
		<path class="st0" d="M544.5,279c-4.5,2.7-4.7,3.4-1.8,8.1c1.7,2.8,2.8,5.9,2.9,9c0.1,4.6,3.2,6.8,6.1,9.3c5.4,4.5,12.2,6.4,18.6,9
			c3.5,1.4,7.2,2.2,10.8,3.4c1.8,0.6,3.2,0,4.1-1.3c0.6-0.8,0.6-2.2,0.3-3.2c-1.8-6.2-4.8-11.6-10.4-15.4c-2.1-1.4-3.5-3.6-3.9-6.3
			c-0.8-4.3-3.2-6.6-7.5-7.6c-4.4-1-8.6-2.6-12.9-3.8c-2-0.6-4-0.8-6-1.2"/>
		<path class="st0" d="M456.9,366c-3.3,1.8-3.7,5.6-5.7,8.4c-4.1,5.9-8.2,11.9-12,18c-1.3,2.1-2.2,4.7-2.7,7.2
			c-0.6,3.5,1.2,4.2,5.3,3.5c10.9-1.9,20.6-6.5,29.4-13.1c5.3-3.9,7.4-10.6,5.4-16.5c-1.3-4.2-4.8-5.5-8.4-6.2s-7.4-0.9-11.1-1.3"/>
		<path class="st0" d="M495.3,770.5c-0.3,0.6-1,1.6-0.8,1.7c2,1.7,4.1,3.4,6.3,4.8c1.6,1,3.3,0.2,4.8-0.7c-1.6-5-5.3-6.2-9.9-5.8"/>
		<path class="st0" d="M335.7,285.6c-2.8,2.6-2.7,5.9-1.4,9c1.2,2.8,2.6,5.7,4.8,7.7c4.1,3.8,3.4,8.2,2.9,12.7
			c-0.5,3.5-2.7,6.7-2.1,10.5c0.6,3.9,1.2,7.8,4.2,10.8c1.7,1.7,3.4,1.9,5.4,0.6c3.9-2.6,8-4.9,9.3-9.9c0.2-0.7,0.3-1.4,0.3-2.1
			c0.3-8.5-2.5-15.5-9.9-20c-3-1.8-3.4-4.5-3.8-7.3c-0.3-2-0.5-4-0.9-6c-1.3-5.6-1.8-6-8.4-6"/>
		<path class="st0" d="M336.9,289.2c-2,2.4-1,6,2.1,7.2c1.1,0.4,2.4,0.6,3.6,0.8c0.8-6-0.3-7.6-5.4-8"/>
		<path class="st0" d="M505.5,343.2c-3.8,4.2-3.4,9,0.9,12c3-2.3,4.4-7.5,3-10.8c-0.8-1.9-2.4-0.9-3.6-1.2"/>
		<path class="st0" d="M462.9,370.2c-2.7,0.5-2.2,3.3-3.6,4.8c-1.7,1.8-2.9,4.1-4.6,5.9c-3.5,3.9-7.2,7.6-10.8,11.4
			c-1.3,1.4-2.3,3.1-0.8,4.7c1.2,1.3,2.6,2.2,5.1,1.4c8.6-2.7,16-7.4,22.7-13.3c3-2.6,3.9-9.9,1.4-12.8c-1-1.2-2.9-1.7-4.4-2.1
			c-1.5-0.3-3.2-0.1-4.8-0.1"/>
		<path class="st0" d="M476.7,290.4c-0.8,0.5-1.6,1.1-2.4,1.5c-2,1-2.2,2.6-1.5,4.5c0.7,1.8,1.9,3,3.9,3c1.9-0.1,4.1-2.4,4.2-4.2
			c0.2-2.7-1-4.1-3.9-4.8"/>
		<path class="st0" d="M383.1,214.2c-11,5.8-14.9,15.5-15,27.3c0,2.2,1.9,3.3,4.2,2.4c3.3-1.3,5.8-3.5,7.8-6.3c2.5-3.8,5.5-7,9.6-9
			c1.5-0.7,1.9-1.8,1.8-3.3c-0.1-2.2,0.4-4.5-0.1-6.6c-0.8-3.6-2.9-4.5-8-4.5"/>
		<path class="st0" d="M663.3,294c-3.7,2.6-3.3,6.6-2.9,10.2c0.4,3.1,1.6,6.2,3,9c0.8,1.7,2.8,2.7,4.4,4.2c4.7-4.2,5.5-9.6,4.1-14.2
			c-1.1-3.6-3.4-8.1-8.4-9.1"/>
		<path class="st0" d="M554.7,240.6c-1.5,0.5-3.1,0.9-4.6,1.4c3.3,1.7,6,0.3,8.9-0.5c0-0.3,0-0.6,0-0.9c-1.3,0-2.6,0-3.9,0"/>
		<path class="st0" d="M453.9,347.5c-0.8,0.5-1.7,0.9-2.4,1.5c-1.8,1.8-1.8,3.4,0.3,4.4c2.1,1,4.1,2.8,6.9,1.3
			c1.9-1,2.7-3.7,0.8-4.8c-1.7-1-2.8-3.3-5.4-2.5"/>
		<path class="st0" d="M667.5,259.9c-5.1,3.2-3.9,9.4-1.2,14.1c1.9,3.4,3.7,6.7,5.4,10.2c0.6,1.2,0.8,2.8,0.6,4.2
			c-0.5,3-2.1,3.5-4.4,1.5c-4.4-3.9-7.9-1.3-9.3,2.4c-1.8,5.1-1.8,10.4-0.3,15.6c0.9,3.3,2.4,6.3,3.2,9.6c0.6,2.7,0.5,5.6,0.7,8.4
			c0.1,1.8,0,3.6,0,5.4c0.1,2.2,1.7,4.7,3.3,4.8c2.1,0.1,3.4-1.1,4.2-3c2.3-5.3,3.6-10.8,4.5-16.5c0.8-5.3,1.8-10.6,2.3-15.9
			c0.4-3.8,0-7.6,0.1-11.4c0-1.1,0-2.7,0.6-3.2c3-2.3,3.4-5.4,3.9-8.8c0.6-3.8,0.4-7.6-1.1-11.1c-1.8-4.3-5.1-6.8-10.1-6.3
			c-0.7,0.1-1.4,0-2.1,0"/>
		<path class="st0" d="M623.7,593.5c-2.7,1.1-3.6,3.3-3.6,6c0,3.1-0.2,6.2,0,9.3c0.3,4.2-0.7,8.1-2.5,11.6
			c-2.4,4.5-0.3,7.7,1.9,11.2c0.1,0.1,0.2,0.2,0.3,0.3c3.5,4,6.5,4.7,8.5-1.9c1.8-5.6,2.2-11.5,3.1-17.4c0.3-2.2,0.6-4.4,0.6-6.6
			c0-2.4-0.2-4.8-0.6-7.2c-0.5-3.3-3.5-5.4-7.5-5.4"/>
		<path class="st0" d="M417.3,258.6c-2.7,1-5.7,1.5-7.5,4.2c-0.7,1-1,1.5-0.4,2.8c1,1.9,1.5,4.1,1.8,6.3c0.6,3.6,3.2,5.7,6.1,6.4
			c3.4,0.9,7.3,0.6,9.8-2.8c0.4-0.5,0.8-1.2,0.9-1.8c0.7-3.3,1.4-6.6,1.8-9.9c0.2-1.8-0.9-3-2.6-4c-3.1-1.7-6.4-0.9-9.6-1.1"/>
		<path class="st0" d="M416.1,260.5c-0.8,0.4-1.6,0.7-2.4,1.2c-2,1.2-3,2.7-1.9,5.1c0.7,1.4,0.8,3,1.3,4.5c1.2,3.3,6.6,6.2,9.5,4.7
			c1.4-0.7,2.3-2.6,3-4.1c0.8-1.7,1-3.6,1.6-5.4c1.2-3.4-0.3-5.9-3.9-6c-2.3-0.1-4.6,0-6.9,0"/>
		<path class="st0" d="M519.9,346.2c-0.5,0.4-1.4,0.7-1.4,1.2c-0.1,1-0.2,2.2,0.3,2.9c0.3,0.4,1.9,0.4,2.5,0c1.3-0.8,1.5-2,0.3-3.2
			c-0.4-0.4-1-0.6-1.5-0.9"/>
		<path class="st0" d="M579.9,260.5c-3,2-3.3,5.4-4.1,8.4c-0.5,1.8,0.6,3.4,2.3,4.1c2.1,0.9,4.3,2,6.6,2.4c3.3,0.6,4.2-1.2,3.5-4.7
			c-0.7-2.9-2.4-5.7-3.8-8.4c-0.8-1.5-2.3-2.2-4.2-1.8"/>
		<path class="st0" d="M665.7,255.6c-7.7,4.2-10,8.5-8.3,17.7c0.8,4.5-0.1,8.6-1.4,12.6c-1.6,4.8-2.4,9.8-2.2,14.7
			c0.2,4.7,1.3,9.6,3,14c1.3,3.6,1.5,7.1,0.3,10.2c-2.3,5.8-0.8,10.7,2,15.6c2.4,4.2,2.4,3.8,7.2,2.5c5-1.4,7.1-5.3,8.9-9.4
			c2.5-5.5,2.8-11.4,3.1-17.4c0.1-2.3,0.2-4.6,0.7-6.9c0.3-1.4,1-3.2,2.1-3.8c3.5-1.8,3.6-5.2,4.4-8.2c1.4-4.8,0.3-9.6-0.5-14.4
			c-0.5-3.2-0.4-6.6-0.7-9.9c-0.4-4-0.8-7.9-2.9-11.4c-2.7-4.5-7.2-5.3-11.7-6c-1.2-0.2-2.4,0-3.6,0"/>
		<path class="st0" d="M567.9,261c-2.1,2-2.4,3.5-0.9,4.8c1.5,1.4,3.7,0.5,6.4-2.5c-0.6-3.2-3.2-2.2-5.2-2.3"/>
		<path class="st0" d="M669.3,261.6c-3.6,3.2-4.1,5.8-1.8,9.9c1.2,2.2,2.5,4.3,3.9,6.3c1.5,2.1,3,2.4,5.1,0.9c2.6-1.9,4-7,2.7-10.5
			c-1.5-4-4.4-7.3-9.6-6.6"/>
		<path class="st0" d="M423.3,255.1c-0.8,0.2-1.6,0.6-2.4,0.6c-4.7-0.5-9.3,0.8-13.4,2.6c-4.8,2.1-9.5,4.6-14.4,6.6
			c-4.5,1.8-6.8,5.9-6.8,10.7c0,2.3,1.4,4.6,2.3,6.9c0.6,1.5,0.1,3.5,2.3,4.3c2.7,1,5.2,1.2,7.8-0.1c3.1-1.5,3.8-3.9,2.1-6.9
			c-0.9-1.6-1.6-3.2-2.4-4.8c-1.4-2.5-0.1-4.8,1-6.9c0.3-0.6,1.9-1.1,2.6-0.9c4.4,1.5,6.7,4.4,6.4,8.3c-0.1,1.6,0,3.8,1,4.7
			c1.7,1.5,4,2.6,6.2,3c3.3,0.6,6.6,0.2,9.6-1.6c1.6-1,3.3-1.8,5.1-2.4c2.4-0.8,2.7-3,2-4.5c-1.9-4.1-0.9-7.5,1.3-10.8
			c1-1.4,0.6-2.7-0.3-3.9c-1.8-2.4-3.7-4.7-7.2-4.2c-0.8,0.1-1.6-0.4-2.4-0.6"/>
		<path class="st0" d="M416.7,262.2c-3.4,2-3.4,2.5-0.9,5.4c1,1.2,1.7,2.9,2.5,4.3c0.2,0,0.5,0,0.7,0c0.3-1.1,0.6-2.2,1-3.5
			c0.7-0.2,1.8-0.4,2.7-0.8c1.1-0.5,2.9-0.8,2.4-2.7c-0.5-1.7-1.5-2.9-3.6-2.7c-1.5,0.1-3,0-4.5,0"/>
		<path class="st0" d="M485.1,340.9c-2.7,2.6-2.5,3.5,2.4,6.4c0.4-1.6,1.2-3,1-4.3c-0.2-1.4-1.3-2.6-3.2-2.1"/>
		<path class="st0" d="M470.1,349.9c-2.7,1.3-0.3,2.6-0.3,3.9c0.3,0,0.6,0,0.9,0c-0.1-1.3-0.2-2.6-0.4-3.9"/>
		<path class="st0" d="M500.7,263.5c-2.3,0.6-4.7,1-6.9,1.9c-1.6,0.6-3.2,1.5-4.5,2.7c-2.6,2.4-2.5,6.1,0,8.9
			c1.6,1.8,3.3,3.5,5.1,5.1c2.5,2.3,3.8,5.3,4.3,8.4c0.3,2-0.7,4.4-1.7,6.2c-1.5,2.8-3.7,5.1-5.3,7.9c-1.2,2.1-1.3,6,1.1,8.4
			c5.8,5.8,12.2,10.9,19.5,14.7c4.5,2.4,8.8,5.1,13.2,7.8c2.3,1.4,4.2,1.4,5.3-0.6c2.9-5.2,5.5-10.6,8.2-15.9c1.3-2.5,0.7-5-0.3-7.5
			c-2.1-5.1-4.5-10.1-6.2-15.3c-1.6-4.6-2.4-9.5-4.9-13.8c-0.2-0.4,0-1,0-1.5c0-2.4,0.3-4.8-1.2-6.9c-2.5-3.5-5.6-6.1-9.6-7.8
			c-5.1-2.2-10.4-3.1-15.9-2.7"/>
		<path class="st0" d="M670.5,264c-3.2,3.6-1.9,10.1,2.4,11.3c0.9,0.3,2.7-0.4,3.2-1.2c0.9-1.5,1.7-3.4,1.5-5
			c-0.4-3.2-3.4-5.1-6.8-5.1"/>
		<path class="st0" d="M393.9,267c-7.5,3.1-5.4,12.2-0.6,15.8c1.6,1.2,3.2,0.4,4.2-1.4c-0.2,0-0.5,0-0.7,0
			c-0.3-3.8-0.6-7.6-0.8-11.5c-0.1-1.4,0-2.7-1.8-3"/>
		<path class="st0" d="M423.9,253.2c-1.1,0.2-2.2,0.4-3.3,0.6c-4.7,0.8-9.7,0.9-14,2.6c-6.4,2.4-13.2,4.3-18.4,9.4
			c-4,3.9-4.1,8.7-3.7,13.5c0.2,2.5,1.3,4.8,0.6,7.5c-1,4.1,2.6,6.9,6.4,5.3c5.5-2.2,11.3-3.8,16.3-7.4c0.9-0.7,2.6-0.6,3.8-0.3
			c5.1,1.3,9.9,0.3,14.7-1.2c2.5-0.8,5-1.4,7.5-1.8c1.1-0.2,2.6,0,3.6,0.6c4.6,2.6,8.9,0.5,13.2-0.7c0.9-0.2,1.5-1.2,1-2.7
			c-0.6-1.7-0.2-3.7-0.8-5.3c-0.9-2.5-3.2-2.9-5.3-1.2c-2.5,1.9-4.9,3.9-8,6.2c-1.6-2.4-3.5-4.4-4.5-6.9c-0.9-2,0.3-4.2,1.7-6
			c2.9-3.8,2-7.3-2.1-9.9c-2.6-1.7-5.4-2.3-8.4-2.4"/>
		<path class="st0" d="M665.1,252.1c-9,2.8-11.8,9.8-11.9,18.3c-0.1,7.3-0.7,14.4-1.6,21.6c-0.9,7.1-1,14.5,2.5,21.3
			c2,3.9,2,7.9,0.2,11.7c-2.3,4.7-2.2,9.4-1,14.1c0.6,2.3,0,3.6-1.3,5.2c-2.4,2.7-4.4,5.6-4.3,9.6c0.2,5.9,3.6,8.1,9.1,6
			c3.2-1.2,4.4-4,6-6.6c1.6-2.7,3.3-5.1,6.8-5.9c1.5-0.3,2.9-2.5,3.9-4c4.7-7.2,7.7-15,8.4-23.7c0.5-6,3.1-11.4,4.5-17.1
			c1.5-6.5,2-12.9,0.4-19.5c-0.5-2-0.4-4.2-0.7-6.3c-0.6-4.9-0.9-9.9-1.9-14.7c-0.9-4.4-4.4-6.6-8.3-8.1c-3.3-1.2-6.8-2.3-10.5-1.8"
			/>
		<path class="st0" d="M359.1,337.2c-0.7,0.4-1.4,0.8-2.1,1.2c-2.6,1.6-3,4.3-0.5,5.9c1.5,1,3.6,1.7,5.3,1.7c0.9,0,2.3-1.9,2.6-3.1
			c0.9-3.8-0.9-5.7-5-5.7"/>
		<path class="st0" d="M483.3,439.2c-1.2,0.2-2.4,0.5-3.6,0.6c-6.5,0.4-12.9,0.7-19.2,2.4c-5.1,1.3-8.1,4.7-9.5,9.4
			c-0.7,2.5,0.7,5.1,2.3,7.1c0.9,1.1,2.2,2.2,3.6,2.7c4.5,1.5,7.4,5.3,11,8c2.1,1.6,4.2,2.8,6.7,3.5c6,1.5,10.4-0.2,14.1-5.4
			c1.8-2.5,4-4.7,3.6-8.1c-0.1-1.1-0.4-2.3-0.9-3.3c-0.6-1.1-1.7-2-2.3-3c-1.5-2.4-2.3-4.9-0.4-7.5c0.6-0.8,0.8-2,1.2-3
			c1.2-2.7,0.8-3.3-2.1-3.3c-1.4,0-2.8,0-4.2,0"/>
		<path class="st0" d="M542.7,335.5c-4.3,3.8-5.8,9.8-2.9,13.7c1.4,1.9,3.6,3.4,5.6,4.8c3.3,2.5,6.7,5,10.2,7.1
			c2.5,1.5,4.2,0.1,4.5-2.9c0.2-3.1-0.4-6-1.8-8.7c-2.9-5.4-6.8-9.9-11.7-13.4c-0.9-0.6-2.4-0.5-3.6-0.7"/>
		<path class="st0" d="M509.7,516.7c-0.5,0.8-1.1,1.6-1.6,2.4c0.2,0.2,0.3,0.4,0.5,0.7c1-0.2,2-0.3,3.6-0.6c-1-1.2-1.6-1.8-2.2-2.5"
			/>
		<path class="st0" d="M588.9,508.9c-2.4,3.2-3,7-3.2,10.8c-0.2,2.4,0.3,4.8,0.4,7.5c5-2.4,6.2-11.6,3.1-18.3"/>
		<path class="st0" d="M425.7,501c-2,2.2-2.8,4.8-3.1,7.8c-0.4,5.2-1.1,10.4-1.7,15.6c-0.1,0.6,0,1.2,0,1.8
			c-0.8,7.1,0.2,14.2,0.6,21.3c0.2,3,0.4,6,0.6,9c0.3,4.7-1.2,9-2,13.5c-0.6,3.6-0.5,7.4-0.4,11.1c0.1,3.6,1,7.2,1.1,10.8
			c0,2.7-0.2,5.6-1.2,8.1c-1.8,4.5-0.4,8.5,1.4,12.3c3.6,7.5,7.5,14.9,13.2,21c4.2,4.6,9.3,8.4,15.5,9.9c5.1,1.3,9.3,4,13.2,7.5
			c2,1.8,4.1,3.6,6.3,5.1c2.9,2,7.4,2,9.5-0.6c5.6-6.8,12.9-4.1,18,0.7c3.2,3,6.1,6.3,9,9.6c3.2,3.7,7.4,5.4,11.7,7.2
			c2.6,1.1,5.3,2.1,7.8,3.3c5.7,2.8,11.3,5.9,17.2,8.6c1.4,0.6,3.6,0.4,5-0.3c1.6-0.8,2.8-2.5,2.5-4.7c-0.2-1.2-0.3-2.4-0.6-3.6
			c-1.9-7.2-1.5-14.4,0-21.6c1.3-6.3,2.9-12.6,4.1-18.9c1-5.1,1.7-10.2,2.4-15.3c0.9-6-3-10.7-9.9-12.3c-2.4-0.6-5.1-1.2-7.2-2.5
			c-3.6-2.2-4.5-6.2-4.5-10.1c0-6.3-0.3-12.5-3.1-18.3c-0.9-1.8-2.1-3.8-3.6-5.1c-5.4-4.5-6.7-9-4.8-16c1.6-5.8,2.8-11.6,3.2-17.7
			c0.3-5.5-1.4-7.6-5.5-8.7c-1-0.3-2.2,0.2-3.3,0.2c-5.4,0.4-10.8,0.9-16.2,1.2c-2.8,0.2-5.6,0.2-8.4,0c-3.6-0.2-6,2.7-9.3,3.3
			c-5.8,1.2-11.3,3.4-17.4,4.1c-4.3,0.5-6.9-0.8-9.7-3.5c-5.7-5.6-9.6-12.4-13.5-19.2c-3-5.1-6-10.4-11.6-13.2
			c-1.6-0.8-3.4-1-5.1-1.5"/>
		<path class="st0" d="M481.5,336c-2.3,0.7-4.2,1.9-4.9,4.9c5.9,5.3,6,14,11.1,21.1c0.4-0.8,1-1.5,1-2c-0.5-4.4,1.6-8.1,3-12
			c2.7-7.1-1.8-12.9-8.7-12c-0.4,0.1-0.8,0-1.2,0"/>
		<path class="st0" d="M506.1,481.2c-0.4,0.2-0.8,0.6-1.2,0.6c-5.3-0.2-8.1,3.6-10.4,7.3c-4.1,6.8,1.4,13,7.7,13.4
			c6.2,0.4,10.6-2.8,15.6-5.1c2.4-1.1,1.6-3.7,1.5-5.6c-0.3-4.2-1.6-8-6-9.5c-2.1-0.8-4.6-0.7-6.9-1"/>
		<path class="st0" d="M431.1,477.6c-1.6,0.6-2,2-1.2,3.3c2.6,3.7,5.8,6.7,9.9,8.7c0.3,0.2,0.8,0,1.2,0c0-3-5.8-10.3-9.6-12"/>
		<path class="st0" d="M503.7,475.9c-2.5,1-5,2-7.5,3c-5.5,2.3-8.5,6.9-9.8,12.3c-1.6,6.7,3.3,12.8,9.8,14c7.9,1.5,16.1,1.6,23.3-2
			c3.8-1.9,8.6-4.2,9.7-9.4c0.3-1.6,0.3-3.6-0.3-5.1c-4-9.2-11.8-12.5-21.2-12.9c-1.2,0-2.4,0-3.6,0"/>
		<path class="st0" d="M663.9,297.6c-2.4,3.8-2.5,9.5,0,12.9c0.6,0.8,1.9,1.6,2.6,1.4c0.9-0.2,1.9-1.3,2.4-2.3
			c1.4-2.9-1-10.2-3.9-12c-0.2-0.1-0.6,0-0.9,0"/>
		<path class="st0" d="M593.7,611.5c-4.3,1-7.6,3.5-9.9,7.2c-2.7,4.5-3.4,13.7-0.1,18c2,2.7,4.6,4.7,7.6,4.5
			c3.3-0.2,6.3-2.3,7.5-5.8c1.5-4.2,3-8.4,2.6-12.9c-0.2-2.6-0.9-5.3-1.8-7.8c-0.9-2.5-2.9-3.7-5.6-3.3"/>
		<path class="st0" d="M347.7,310.2c-2.8,1.2-2.4,3.8-2.6,6c-0.5,4.1-1.3,8.2,0.2,12.3c1.5,4,4.1,5.2,6.9,1.5c1.9-2.6,3-5.3,2.3-9
			c-0.6-3.4-0.9-6.6-3.5-8.9c-0.9-0.8-2-1.2-3-1.8"/>
		<path class="st0" d="M348.3,313.9c-3.1,2.8-2.8,10-1.1,13.5c0.3,0.6,2.3,0.9,2.8,0.5c1-0.7,1.7-2,2.1-3.2
			c1.3-3.6-0.4-8.6-3.6-10.8"/>
		<path class="st0" d="M549.9,396c-0.7,0.4-1.4,0.8-2.1,1.2c-3.7,2.2-4,6.6-0.3,8.6c4.6,2.5,7.6,6.4,10.7,10.3c2.3,2.9,3.9,3.9,6,3
			c2.5-1,4.1-4.5,3.4-7.5c-1-4.1-2.4-7.7-5.4-10.9c-3.4-3.6-7.2-5.3-12.1-4.7"/>
		<path class="st0" d="M551.1,398.5c-3.6,3.2-3.3,5.1,0.6,7.9c2.1,1.5,3.9,3.5,5.7,5.4c1.5,1.4,3.1,2.6,5.1,1.4s2.1-3,1.3-5.4
			c-2-6.1-5.9-9.3-12.4-9.3"/>
		<path class="st0" d="M592.5,618c-5.8,2.5-9.2,9.5-6.6,14.1c3.2,5.7,6.4,4.9,9.5,0.6c2.1-3,2.3-6.8,1.8-10.4
			c-0.3-2.2-1.7-4.1-4.4-4.2"/>
		<path class="st0" d="M534.3,407.5c-3.4,0.6-6.8,1.6-10.2,1.7c-8.3,0.3-16.2,1.8-23.7,5.4c-2.3,1.1-5.1,1.4-7.8,1.8
			c-2.6,0.4-5.2,0.6-7.8,0.6c-4.3,0-8.3,1-12.3,2.6c-3.9,1.6-8.2,2.2-12.2,3.4c-3.8,1.2-4.8,2.5-4.4,5.7c0.1,0.7,0.8,1.8,1.5,2
			c1.9,0.6,4,1.4,6,1.2c5.3-0.7,10.6-2,15.9-2.9c2.5-0.4,5-0.4,7.5-0.6c3.5-0.4,7-0.6,10.5-1.2c6.8-1.3,13.5-0.8,20.1,0.7
			c5.5,1.3,10.9,2.6,16.5,2.2c4.9-0.3,9.9-1.2,14.7-2.4c6.6-1.5,8.3-8.3,3.9-14c-3.5-4.5-8-6.9-13.8-6.3c-1.3,0.1-2.6,0-3.9,0"/>
		<path class="st0" d="M540.3,412.3c-2.5,0.4-5,0.8-7.5,1.2c-5.1,0.8-10.2,1.5-15.3,2.5c-2.6,0.5-5.4,1.1-7.2,4.7
			c4.8,1.3,9.3,2.6,13.8,3.6c2.7,0.6,5.6,1.3,8.4,1.1c4.5-0.2,9.1-0.3,13.2-2.6c1.7-0.9,3.5-2,3.2-4.2c-0.2-2.3-1.2-4.2-3.6-5.1
			c-1.5-0.6-3.2-0.8-4.8-1.2"/>
		<path class="st0" d="M536.1,414.6c-3.6,0.8-7.2,1.5-10.8,2.4c-1.6,0.4-3.1,1.3-5.2,2.1c3.7,2.4,7.1,3.3,10.9,4
			c4.6,0.8,8.7,0.1,12.9-1.4c1.7-0.6,3.7-1.5,2.9-3.8c-0.6-1.9-1.9-3.5-4.4-3.3c-2,0.1-4,0-6,0"/>
		<path class="st0" d="M362.1,333c-2.4,1.4-4.8,2.8-7.2,4.2c-3.6,2.2-4.6,8.5,0.6,10.2c1.1,0.4,2.4,0.6,3.3,1.2
			c1.4,1,2.7,2.3,4.5,1.1c2.3-1.4,4-3.3,3.6-6.3c-0.4-2.7-0.7-5.4-1.2-8.1c-0.3-1.6-1.5-2.5-3.3-2.4"/>
	</g>
</g>
</svg>
